<svg width="131" height="103" viewBox="0 0 131 103" fill="none" xmlns="http://www.w3.org/2000/svg">
<g opacity="0.6">
<path d="M127.701 62.8246C127.686 62.829 127.67 62.8315 127.655 62.8318C125.024 62.9686 122.397 63.1715 119.774 63.4407H119.77C119.759 63.4426 119.75 63.4426 119.739 63.4444C117.046 63.7215 114.358 64.0685 111.676 64.4853C111.562 64.5036 111.45 64.5218 111.338 64.5382C109.483 64.8317 107.632 65.1574 105.784 65.5153C104.968 65.6739 104.155 65.8392 103.342 66.0112C103.239 66.0331 103.138 66.0531 103.035 66.0768V65.5244C103.138 65.5007 103.241 65.4807 103.342 65.4588C106.048 64.89 108.763 64.3936 111.487 63.9694C112.172 63.86 112.858 63.7567 113.544 63.6595C115.528 63.3751 117.515 63.1296 119.505 62.923C119.651 62.9084 119.796 62.8938 119.942 62.8792C122.489 62.6222 125.04 62.4271 127.595 62.2941C127.607 62.2934 127.619 62.2946 127.632 62.2977C127.877 62.3232 127.929 62.7608 127.701 62.8246Z" fill="white"/>
<path d="M122.238 71.437C118.961 71.4656 115.733 69.816 113.415 67.0856C112.761 66.3123 112.185 65.4515 111.698 64.5207C111.542 64.2232 111.176 64.5512 111.331 64.8461C113.131 68.2735 116.129 70.715 119.435 71.6127C120.374 71.8652 121.334 71.9872 122.297 71.9762C122.591 71.9736 122.53 71.4345 122.238 71.437V71.437Z" fill="white"/>
<path d="M108.388 57.1422C108.374 57.1935 108.349 57.2394 108.315 57.2756C108.282 57.3117 108.24 57.3368 108.196 57.3482C107.445 57.5818 106.72 57.9183 106.034 58.3509C105.033 58.9785 104.124 59.7942 103.342 60.7663C103.301 60.8156 103.261 60.8648 103.223 60.9158C103.158 60.9961 103.097 61.0781 103.035 61.1619V60.3671C103.133 60.2432 103.236 60.121 103.342 60.0043C103.96 59.3027 104.643 58.6885 105.38 58.174C106.369 57.773 107.372 57.429 108.388 57.1422Z" fill="white"/>
<path d="M124.48 57.4925C122.396 58.5562 120.652 60.3818 119.502 62.7037C119.479 62.7702 119.478 62.8448 119.501 62.9115C119.524 62.9782 119.568 63.0315 119.624 63.0599C119.68 63.0862 119.742 63.0859 119.798 63.059C119.854 63.0321 119.899 62.9807 119.924 62.9154C121.021 60.7224 122.677 58.9999 124.652 57.9963C124.923 57.8588 124.752 57.3548 124.48 57.4925L124.48 57.4925Z" fill="white"/>
<path d="M128.52 46.2376C125.63 48.07 122.125 48.3895 119.004 47.2498C118.123 46.9256 117.276 46.4812 116.48 45.9255C116.225 45.7482 116.03 46.2403 116.282 46.416C119.218 48.4584 122.828 48.9669 126.107 47.9388C127.037 47.6447 127.935 47.2231 128.783 46.6826C129.043 46.5182 128.778 46.0744 128.52 46.2376V46.2376Z" fill="white"/>
<path d="M106.892 52.9077C106.749 51.9534 106.7 50.9825 106.746 50.0147C106.85 47.8076 107.419 45.6667 108.402 43.789C109.121 42.8888 109.875 42.0312 110.662 41.2164C110.67 41.2697 110.665 41.3243 110.65 41.375C110.634 41.4257 110.607 41.4706 110.572 41.5053C109.999 42.1264 109.488 42.8243 109.05 43.5849C107.486 46.2957 106.875 49.6249 107.349 52.8626C107.356 52.8993 107.356 52.9378 107.348 52.9742C107.339 53.0107 107.323 53.044 107.301 53.0709C107.268 53.1049 107.228 53.1281 107.185 53.1381C107.142 53.1482 107.098 53.1448 107.057 53.1283C107.016 53.1118 106.979 53.0827 106.95 53.044C106.921 53.0053 106.901 52.9583 106.892 52.9077V52.9077Z" fill="white"/>
<path d="M125.05 32.6523C123.62 34.7438 122.79 37.3223 122.68 40.0127C122.685 40.0844 122.714 40.1507 122.761 40.1971C122.807 40.2436 122.867 40.2666 122.927 40.261C122.987 40.2534 123.042 40.2187 123.081 40.164C123.12 40.1094 123.14 40.039 123.136 39.9676C123.25 37.4202 124.043 34.9817 125.399 33.0035C125.585 32.7323 125.236 32.3806 125.05 32.6523Z" fill="white"/>
<path d="M105.183 28.8273C105.18 28.8451 105.174 28.8623 105.166 28.8783C104.545 30.313 103.937 31.755 103.342 33.2043C103.239 33.4541 103.137 33.7056 103.035 33.9554V32.7157C103.137 32.4678 103.239 32.2199 103.342 31.972C103.801 30.8672 104.268 29.7673 104.743 28.6723C104.748 28.6595 104.754 28.6473 104.761 28.6358C104.902 28.3952 105.252 28.5593 105.183 28.8273Z" fill="white"/>
<path d="M109.197 38.9358C109.17 38.9941 109.142 39.0525 109.111 39.1108C108.66 40.0437 108.124 40.9143 107.511 41.7068C106.335 43.2221 104.918 44.4468 103.342 45.3109C103.241 45.3692 103.138 45.4239 103.035 45.4749V44.8825C103.138 44.8278 103.241 44.7713 103.342 44.7129C105.623 43.4212 107.518 41.3339 108.773 38.7298C108.792 38.6926 108.816 38.6605 108.846 38.6356C108.875 38.6107 108.909 38.5936 108.944 38.5855C108.98 38.5774 109.016 38.5784 109.052 38.5885C109.087 38.5986 109.12 38.6176 109.148 38.6441C109.168 38.6594 109.184 38.6791 109.197 38.7021C109.21 38.725 109.219 38.7508 109.224 38.7779C109.228 38.805 109.228 38.8329 109.224 38.86C109.219 38.8871 109.21 38.9128 109.197 38.9358V38.9358Z" fill="white"/>
<path d="M103.342 6.01593V19.8708H103.035V19.7231H0.307109V19.8708H0V6.01593C0.00131878 4.42089 0.535616 2.89162 1.48563 1.76375C2.43565 0.635887 3.72377 0.00156567 5.0673 0H98.2749C99.6184 0.00156567 100.907 0.635887 101.857 1.76375C102.807 2.89162 103.341 4.42089 103.342 6.01593V6.01593Z" fill="#768463"/>
<path d="M98.2749 0H5.0673C3.72377 0.00156567 2.43565 0.635887 1.48563 1.76375C0.535616 2.89162 0.00131878 4.42089 0 6.01593V85.1345C0.00131878 86.7296 0.535616 88.2588 1.48563 89.3867C2.43565 90.5146 3.72377 91.1489 5.0673 91.1504H98.2749C99.6184 91.1489 100.907 90.5146 101.857 89.3867C102.807 88.2588 103.341 86.7296 103.342 85.1345V6.01593C103.341 4.42089 102.807 2.89162 101.857 1.76375C100.907 0.635887 99.6184 0.00156567 98.2749 0V0ZM103.035 85.1345C103.033 86.6328 102.531 88.0691 101.639 89.1285C100.747 90.1879 99.5369 90.7839 98.2749 90.7858H5.0673C3.80531 90.7839 2.59547 90.1879 1.70311 89.1285C0.810753 88.0691 0.308719 86.6328 0.307109 85.1345V6.01593C0.308719 4.51769 0.810753 3.08137 1.70311 2.02195C2.59547 0.962535 3.80531 0.366513 5.0673 0.364602H98.2749C99.5369 0.366514 100.747 0.962535 101.639 2.02195C102.531 3.08137 103.033 4.51769 103.035 6.01593V85.1345Z" fill="#3F3D56"/>
<path d="M20.8833 13.5814C22.5795 13.5814 23.9544 11.949 23.9544 9.93539C23.9544 7.92175 22.5795 6.28937 20.8833 6.28937C19.1872 6.28937 17.8123 7.92175 17.8123 9.93539C17.8123 11.949 19.1872 13.5814 20.8833 13.5814Z" fill="white"/>
<path d="M82.4588 13.5814C84.1549 13.5814 85.5299 11.949 85.5299 9.93539C85.5299 7.92175 84.1549 6.28937 82.4588 6.28937C80.7627 6.28937 79.3877 7.92175 79.3877 9.93539C79.3877 11.949 80.7627 13.5814 82.4588 13.5814Z" fill="white"/>
<path d="M29.7565 50.5889H11.4872C10.7132 50.5878 9.97116 50.2223 9.42388 49.5726C8.87659 48.9229 8.56875 48.0419 8.56787 47.1231V36.8718C8.56875 35.9529 8.87659 35.072 9.42388 34.4223C9.97116 33.7725 10.7132 33.407 11.4872 33.406H29.7565C30.5305 33.407 31.2725 33.7725 31.8198 34.4223C32.3671 35.072 32.6749 35.9529 32.6758 36.8718V47.1231C32.6749 48.0419 32.3671 48.9229 31.8198 49.5726C31.2725 50.2223 30.5305 50.5878 29.7565 50.5889V50.5889Z" fill="#768463"/>
<path d="M60.8356 50.5889H42.5663C41.7923 50.5878 41.0503 50.2223 40.503 49.5726C39.9557 48.9229 39.6478 48.0419 39.647 47.1231V36.8718C39.6478 35.9529 39.9557 35.072 40.503 34.4223C41.0503 33.7725 41.7923 33.407 42.5663 33.406H60.8356C61.6096 33.407 62.3516 33.7725 62.8989 34.4223C63.4462 35.072 63.754 35.9529 63.7549 36.8718V47.1231C63.754 48.0419 63.4462 48.9229 62.8989 49.5726C62.3516 50.2223 61.6096 50.5878 60.8356 50.5889V50.5889Z" fill="#768463"/>
<path d="M60.8357 77.0756H42.5664C41.7689 77.0745 41.0044 76.698 40.4405 76.0285C39.8767 75.3591 39.5595 74.4515 39.5586 73.5047V63.2534C39.5595 62.3067 39.8767 61.399 40.4405 60.7296C41.0044 60.0602 41.7689 59.6836 42.5664 59.6826H60.8357C61.6331 59.6836 62.3976 60.0602 62.9615 60.7296C63.5254 61.399 63.8425 62.3067 63.8434 63.2534V73.5047C63.8425 74.4515 63.5254 75.3591 62.9615 76.0285C62.3976 76.6979 61.6331 77.0745 60.8357 77.0756V77.0756Z" fill="#F2F2F2"/>
<path d="M29.6965 77.0756H11.4272C10.6298 77.0745 9.86524 76.6979 9.30137 76.0285C8.73751 75.3591 8.42033 74.4515 8.41943 73.5047V63.2534C8.42033 62.3067 8.73751 61.399 9.30137 60.7296C9.86524 60.0602 10.6298 59.6836 11.4272 59.6826H29.6965C30.4939 59.6836 31.2585 60.0602 31.8223 60.7296C32.3862 61.399 32.7034 62.3067 32.7043 63.2534V73.5047C32.7034 74.4515 32.3862 75.3591 31.8223 76.0285C31.2585 76.6979 30.4939 77.0745 29.6965 77.0756V77.0756Z" fill="#F2F2F2"/>
<path d="M91.915 77.0756H73.6457C72.8483 77.0745 72.0837 76.6979 71.5199 76.0285C70.956 75.3591 70.6388 74.4515 70.6379 73.5047V63.2534C70.6388 62.3067 70.956 61.399 71.5199 60.7296C72.0837 60.0602 72.8483 59.6836 73.6457 59.6826H91.915C92.7124 59.6836 93.477 60.0602 94.0408 60.7296C94.6047 61.399 94.9219 62.3067 94.9228 63.2534V73.5047C94.9219 74.4515 94.6047 75.3591 94.0408 76.0285C93.477 76.6979 92.7124 77.0745 91.915 77.0756V77.0756Z" fill="#F2F2F2"/>
<path d="M91.915 50.6094H73.6457C72.8483 50.6084 72.0837 50.2318 71.5199 49.5624C70.956 48.893 70.6388 47.9853 70.6379 47.0386V36.7873C70.6388 35.8405 70.956 34.9329 71.5199 34.2635C72.0837 33.5941 72.8483 33.2175 73.6457 33.2164H91.915C92.7124 33.2175 93.477 33.5941 94.0408 34.2635C94.6047 34.9329 94.9219 35.8405 94.9228 36.7873V47.0386C94.9219 47.9853 94.6047 48.893 94.0408 49.5624C93.477 50.2318 92.7124 50.6084 91.915 50.6094Z" fill="#F2F2F2"/>
<path d="M20.6219 47.8787C23.3579 47.8787 25.5759 45.2456 25.5759 41.9974C25.5759 38.7492 23.3579 36.116 20.6219 36.116C17.8859 36.116 15.668 38.7492 15.668 41.9974C15.668 45.2456 17.8859 47.8787 20.6219 47.8787Z" fill="white"/>
<path d="M20.1307 44.241C20.0192 44.2412 19.9107 44.1984 19.8215 44.1191L19.816 44.1142L18.6518 43.0559C18.5978 43.0069 18.5525 42.9457 18.5184 42.8759C18.4843 42.8061 18.4622 42.729 18.4532 42.649C18.4443 42.569 18.4487 42.4877 18.4662 42.4098C18.4838 42.3318 18.5141 42.2587 18.5554 42.1946C18.5967 42.1306 18.6483 42.0768 18.7071 42.0365C18.766 41.9961 18.831 41.9699 18.8983 41.9593C18.9657 41.9488 19.0342 41.9541 19.0999 41.975C19.1655 41.9959 19.227 42.0319 19.2809 42.0811L20.035 42.7675L21.8171 40.0084C21.8584 39.9444 21.9099 39.8907 21.9688 39.8504C22.0276 39.81 22.0925 39.7838 22.1598 39.7733C22.2272 39.7627 22.2956 39.768 22.3612 39.7889C22.4268 39.8097 22.4884 39.8457 22.5423 39.8948L22.5312 39.9126L22.5425 39.895C22.6513 39.9943 22.7224 40.1406 22.7404 40.302C22.7583 40.4634 22.7216 40.6267 22.6383 40.756L20.5422 44.0014C20.4937 44.0761 20.4314 44.1367 20.36 44.1782C20.2886 44.2198 20.2102 44.2413 20.1307 44.241V44.241Z" fill="#768463"/>
<path d="M51.7894 47.7943C54.5254 47.7943 56.7434 45.1612 56.7434 41.913C56.7434 38.6648 54.5254 36.0316 51.7894 36.0316C49.0534 36.0316 46.8354 38.6648 46.8354 41.913C46.8354 45.1612 49.0534 47.7943 51.7894 47.7943Z" fill="white"/>
<path d="M51.2985 44.1566C51.187 44.1568 51.0785 44.114 50.9893 44.0347L50.9838 44.0297L49.8196 42.9715C49.7107 42.8725 49.6394 42.7261 49.6214 42.5647C49.6034 42.4032 49.6402 42.2399 49.7236 42.1106C49.807 41.9813 49.9303 41.8967 50.0663 41.8753C50.2023 41.854 50.3399 41.8976 50.4488 41.9966L51.2028 42.6831L52.9849 39.924C53.0262 39.86 53.0778 39.8063 53.1366 39.766C53.1954 39.7256 53.2603 39.6994 53.3276 39.6889C53.395 39.6783 53.4634 39.6836 53.529 39.7045C53.5947 39.7253 53.6562 39.7613 53.7101 39.8104C53.8188 39.9096 53.8902 40.0562 53.9082 40.2176C53.9261 40.379 53.8894 40.5423 53.8061 40.6716L51.71 43.9169C51.6615 43.9917 51.5992 44.0522 51.5278 44.0938C51.4564 44.1354 51.378 44.1568 51.2985 44.1566Z" fill="#768463"/>
<path d="M85.2706 69.6662C85.4333 69.4549 85.5551 69.2039 85.6272 68.9307C85.6994 68.6575 85.7203 68.3688 85.6883 68.0851C85.6563 67.8013 85.5724 67.5293 85.4423 67.2882C85.3122 67.0471 85.1392 66.8428 84.9354 66.6897L82.1697 49.1573L78.8062 50.6381L82.5824 67.4062C82.3884 67.8297 82.3321 68.323 82.4239 68.7925C82.5158 69.262 82.7496 69.6752 83.081 69.9538C83.4123 70.2323 83.8182 70.3569 84.2218 70.3039C84.6253 70.2509 84.9985 70.024 85.2706 69.6662V69.6662Z" fill="#A0616A"/>
<path d="M58.4318 42.9137C58.4401 43.0226 58.4413 43.1321 58.4351 43.2411L64.975 49.2169L66.8296 48.3128L68.3448 51.4573L65.1926 53.4367C64.9379 53.5966 64.6465 53.6541 64.3619 53.6006C64.0774 53.5471 63.8152 53.3855 63.6146 53.14L57.0776 45.1389C56.7316 45.2316 56.37 45.197 56.0409 45.0397C55.7119 44.8824 55.431 44.6099 55.2355 44.2585C55.0401 43.907 54.9394 43.4933 54.9469 43.0723C54.9544 42.6512 55.0697 42.2429 55.2774 41.9015C55.4851 41.5602 55.7755 41.302 56.1098 41.1613C56.4442 41.0206 56.8067 41.0041 57.1491 41.114C57.4915 41.2239 57.7977 41.4549 58.0268 41.7764C58.2559 42.0979 58.3972 42.4946 58.4318 42.9137H58.4318Z" fill="#A0616A"/>
<path d="M73.7105 100.785H71.8281L70.9324 93.9872L73.7109 93.9874L73.7105 100.785Z" fill="#A0616A"/>
<path d="M74.1907 102.951L68.1206 102.951V102.86C68.1206 102.492 68.1817 102.127 68.3004 101.787C68.4192 101.446 68.5932 101.137 68.8126 100.877C69.032 100.616 69.2925 100.409 69.5791 100.269C69.8658 100.128 70.173 100.055 70.4833 100.055H70.4834L74.1908 100.055L74.1907 102.951Z" fill="#2D343C"/>
<path d="M80.774 100.785H78.8915L77.9958 93.9872L80.7744 93.9874L80.774 100.785Z" fill="#A0616A"/>
<path d="M81.2542 102.951L75.1841 102.951V102.86C75.1841 102.492 75.2452 102.127 75.3639 101.787C75.4827 101.446 75.6567 101.137 75.8761 100.877C76.0955 100.616 76.3559 100.409 76.6426 100.269C76.9292 100.128 77.2365 100.055 77.5467 100.055H77.5469L81.2543 100.055L81.2542 102.951Z" fill="#2D343C"/>
<path d="M71.437 99.4414C71.2652 99.4415 71.0994 99.3655 70.9723 99.2282C70.8452 99.0909 70.7659 98.9021 70.7499 98.699L69.1094 72.5043L69.1869 72.4968L80.4764 71.3951L80.4794 71.4904L81.3769 98.626C81.3803 98.7362 81.365 98.8462 81.3319 98.9492C81.2988 99.0523 81.2485 99.1463 81.184 99.2258C81.1195 99.3052 81.0422 99.3684 80.9567 99.4116C80.8712 99.4547 80.7792 99.477 80.6863 99.477H78.4727C78.3075 99.4779 78.1475 99.4081 78.022 99.2803C77.8966 99.1526 77.8142 98.9755 77.7898 98.7814L74.7838 76.8606C74.7809 76.838 74.7708 76.8175 74.7558 76.8032C74.7407 76.7889 74.7216 76.7819 74.7024 76.7836C74.6831 76.7852 74.6651 76.7955 74.6519 76.8122C74.6387 76.8289 74.6313 76.8509 74.6311 76.8738L74.4948 98.5172C74.4934 98.7262 74.4249 98.9268 74.3032 99.0779C74.1816 99.229 74.016 99.3194 73.8402 99.3306L71.4741 99.4401C71.4617 99.441 71.4493 99.4414 71.437 99.4414Z" fill="#2D343C"/>
<path d="M73.364 39.3999C75.4469 39.3999 77.1354 37.3952 77.1354 34.9224C77.1354 32.4495 75.4469 30.4449 73.364 30.4449C71.2811 30.4449 69.5925 32.4495 69.5925 34.9224C69.5925 37.3952 71.2811 39.3999 73.364 39.3999Z" fill="#A0616A"/>
<path d="M74.094 74.1749C72.4456 74.169 70.8052 73.9029 69.2159 73.3834C69.0629 73.3305 68.93 73.2167 68.8395 73.0611C68.749 72.9054 68.7064 72.7175 68.719 72.529C69.2267 63.4699 69.3461 56.4397 68.2784 51.5755C67.8234 49.5024 68.03 47.319 68.8452 45.5851C70.0721 42.9759 72.3271 41.3878 74.7325 41.4426C74.8475 41.4452 74.9636 41.45 75.0808 41.4572C78.7312 41.6804 81.5757 45.601 81.4217 50.1971L80.6874 72.1039C80.6848 72.2637 80.6423 72.419 80.5653 72.5502C80.4884 72.6814 80.3805 72.7826 80.2551 72.8411C78.2854 73.7208 76.1985 74.1726 74.094 74.1749Z" fill="#2D343C"/>
<path d="M68.8991 53.2575L66.074 49.1477C65.9936 49.0307 65.9354 48.8946 65.9034 48.7485C65.8713 48.6025 65.8661 48.4499 65.8882 48.3013C65.9103 48.1527 65.959 48.0114 66.0312 47.8872C66.1034 47.7629 66.1973 47.6586 66.3065 47.5813L70.1333 44.8742C70.6396 44.3892 71.2872 44.1624 71.9341 44.2435C72.5811 44.3246 73.1745 44.7069 73.5843 45.3067C73.9941 45.9065 74.1869 46.6747 74.1203 47.443C74.0537 48.2112 73.7332 48.9167 73.229 49.4048L70.2382 53.3012C70.1525 53.4127 70.0476 53.501 69.9306 53.56C69.8136 53.6191 69.6873 53.6475 69.5602 53.6434C69.4331 53.6392 69.3083 53.6026 69.1942 53.536C69.0801 53.4695 68.9794 53.3745 68.8991 53.2575V53.2575Z" fill="#2D343C"/>
<path d="M77.7862 52.7418C77.6701 52.6802 77.5667 52.5895 77.4828 52.4761C77.399 52.3626 77.3367 52.229 77.3003 52.0844L76.0286 47.0337C75.7525 46.3344 75.7213 45.5335 75.9419 44.8069C76.1625 44.0803 76.6168 43.4872 77.2052 43.1577C77.7936 42.8282 78.4681 42.7892 79.0807 43.0493C79.6933 43.3094 80.194 43.8473 80.473 44.545L82.9324 48.9546C83.0025 49.0805 83.049 49.2228 83.0687 49.3719C83.0884 49.521 83.0808 49.6734 83.0463 49.8187C83.0119 49.964 82.9515 50.0988 82.8693 50.2139C82.7871 50.329 82.6849 50.4217 82.5697 50.4857L78.5229 52.7346C78.4078 52.7986 78.2824 52.8324 78.1552 52.8337C78.0281 52.8349 77.9022 52.8036 77.7862 52.7418V52.7418Z" fill="#2D343C"/>
<path d="M75.2277 38.5962L72.4321 37.8366C72.1438 37.7582 71.7973 37.6087 71.7573 37.2607C71.7036 36.7931 72.2704 36.4673 72.2181 35.9995C72.1675 35.5463 71.6511 35.4879 71.2829 35.3542C70.94 35.2114 70.6574 34.9157 70.4948 34.5299C70.3322 34.144 70.3025 33.6982 70.4119 33.2868C70.0135 33.9533 69.1034 34.0104 68.5867 33.4704C68.07 32.9304 67.9709 31.9507 68.2812 31.2212C68.4488 30.8629 68.6853 30.5566 68.9715 30.3273C69.2576 30.0979 69.5853 29.952 69.9279 29.9013C70.6167 29.8085 71.3132 29.9627 71.9276 30.3439C71.9686 29.8274 72.5118 29.618 72.9488 29.6133C73.8565 29.6259 74.7384 29.9741 75.4717 30.6095C76.2049 31.2449 76.7531 32.1359 77.04 33.1584C77.5762 35.2097 77.2175 37.4582 75.7172 38.6584L75.2277 38.5962Z" fill="#2D343C"/>
<path d="M103.386 103H44.8821C44.8413 103 44.8023 102.981 44.7735 102.947C44.7447 102.912 44.7285 102.866 44.7285 102.818C44.7285 102.769 44.7447 102.723 44.7735 102.689C44.8023 102.655 44.8413 102.635 44.8821 102.635H103.386C103.427 102.635 103.466 102.655 103.495 102.689C103.524 102.723 103.54 102.769 103.54 102.818C103.54 102.866 103.524 102.912 103.495 102.947C103.466 102.981 103.427 103 103.386 103Z" fill="#3F3D56"/>
</g>
</svg>
