<svg width="548" height="424" viewBox="0 0 548 424" fill="none" xmlns="http://www.w3.org/2000/svg">
<path d="M127.16 42.5361L128.095 42.2132C144.558 36.5258 161.601 32.6798 178.912 30.7457L209.169 27.365L268.617 25.4778L249.789 28.4642C231.964 31.2917 214.393 35.5381 197.244 41.163L193.735 42.3137C187.05 44.5065 180.553 47.2374 174.309 50.4796C169.666 52.8907 165.201 55.6312 160.948 58.6799L150.664 66.0534C144.209 71.0514 138.627 77.0863 134.148 83.912L127.703 93.733L121.412 109.145L73.9165 94.9911L79.5995 83.8436C86.5808 70.1497 97.1872 58.6349 110.263 50.5546C115.582 47.2671 121.249 44.578 127.16 42.5361Z" fill="#A7AA63" fill-opacity="0.05"/>
<path d="M201.62 298.813L188.266 320.642C186.385 323.716 183.118 325.674 179.521 325.883L158.213 327.122L109.774 328.694L72.9729 327.122L91.2162 331.211L121.098 334.985L138.083 337.187H163.246H192.184L211.056 334.985L247.404 328.084C256.282 326.398 264.973 323.844 273.351 320.46C296.325 311.179 316.931 296.875 333.658 278.596L338.759 273.021L366.439 235.591L390.222 195.364C391.249 193.628 393.217 192.679 395.214 192.956L634.427 226.154L405.956 177.7C402.904 177.053 401.184 173.8 402.367 170.913L407.958 157.27L424.943 110.089L435.323 63.2226L414.721 110.246L394.118 157.27L366.439 206.338L351.577 226.943C343.046 238.769 333.554 249.871 323.198 260.136L318.902 264.394C308.514 274.69 296.524 283.234 283.4 289.691L286.231 279.941L284.973 274.908L278.997 273.021L201.62 298.813Z" fill="#A7AA63" fill-opacity="0.27"/>
<path d="M362.489 185.709L335.3 226.783L350.083 187.466L361.406 146.261L369.899 93.4183L372.562 49.0374C372.644 47.6661 374.053 46.7841 375.322 47.3088L418.039 64.9652C419.069 65.3908 419.552 66.5761 419.114 67.6006L391.885 131.207C383.745 150.221 373.906 168.462 362.489 185.709Z" fill="#A7AA63" fill-opacity="0.05"/>
<path d="M39.3178 233.389L38.6887 240.938L69.8282 248.801L115.751 253.834L146.261 255.721L204.766 256.35L235.591 254.463L262.012 251.318L279.941 245.341L293.152 234.647L298.813 224.896L304.161 207.597L312.024 165.134L321.775 100.024L362.951 108.767C366.109 109.437 369.322 109.814 372.549 109.893L378.12 110.029C379.759 110.069 381.394 109.849 382.964 109.378C383.479 109.224 383.973 109.007 384.436 108.734L386.053 107.778C389.028 106.02 391.289 103.27 392.44 100.011C392.497 99.85 392.401 99.6747 392.235 99.635L325.734 83.7723C324.736 83.5343 324.08 82.5796 324.215 81.5626L327.751 55.0446L331.211 37.7449L335.929 22.3324L324.137 20.4564C322.905 20.2604 321.68 20.8474 321.061 21.9307L315.799 31.1396C313.293 36.9851 311.576 43.1375 310.691 49.4354L306.795 77.1627C306.727 77.6488 306.316 78.0134 305.825 78.0234L293.781 78.2692C292.109 78.3033 290.446 78.5281 288.824 78.9393L268.932 83.9823L253.839 88.5676C247.344 90.5407 240.713 92.0333 233.999 93.0332C230.871 93.4991 227.712 93.733 224.549 93.733H87.5718C85.4071 93.733 83.2609 93.3345 81.2406 92.5575C80.5543 92.2935 79.8993 91.9545 79.2875 91.5467L76.4335 89.644L72.03 85.8695L66.1225 103.311C65.6873 104.595 65.9329 106.013 66.7749 107.077L71.4009 112.92L76.8989 118.418C77.8448 119.364 78.8763 120.22 79.9803 120.975L82.8101 122.912C83.7984 123.588 84.858 124.153 85.9698 124.598C87.9839 125.404 90.1254 125.844 92.294 125.899L151.294 127.389L224.267 126.76L235.591 125.816L243.288 124.489C244.134 124.343 244.785 123.661 244.892 122.809C245.191 120.415 245.701 118.052 246.416 115.748L246.901 114.186C247.746 111.463 248.88 108.837 250.283 106.354L250.387 106.171C251.627 103.978 253.247 102.023 255.173 100.398L257.571 98.3748C260.701 95.7341 264.389 93.8379 268.357 92.8289L280.885 89.644L278.286 90.3548C267.768 93.2324 259.054 100.603 254.471 110.499C253.633 112.311 253.093 114.246 252.872 116.23L252.261 121.727L251.632 131.792L252.075 147.289C252.195 151.498 253.814 155.526 256.639 158.648C257.663 159.78 259.093 160.462 260.618 160.544L263.14 160.681C267.351 160.908 271.4 159.027 273.942 155.662C278.282 149.918 281.013 143.121 281.855 135.971L285.275 106.895C285.476 105.189 286.621 103.742 288.235 103.156C288.783 102.957 289.361 102.855 289.943 102.855H303.217L292.943 168.508C291.198 179.657 288.479 190.632 284.816 201.306L281.115 212.093C279.922 215.568 278.118 218.801 275.786 221.639L275.363 222.155C273.186 224.805 270.606 227.096 267.718 228.944C265.393 230.433 262.876 231.599 260.238 232.41L251.947 234.962L238.422 237.478L220.807 239.365L201.306 240.623L161.988 240.938L78.3208 237.163L39.3178 233.389Z" fill="#A7AA63" fill-opacity="0.27"/>
<path d="M212 345.365L185.238 347.744C184.268 347.83 183.4 348.382 182.91 349.224L176.701 359.904C176.314 360.571 176.795 361.407 177.566 361.407H196.902L229.299 361.092L254.148 359.834L255.389 359.615C257.919 359.168 260.001 357.372 260.814 354.935L263.899 345.68L268.186 334.962C268.492 334.196 267.791 333.409 266.994 333.626L244.712 339.703L212 345.365Z" fill="#A7AA63" fill-opacity="0.27"/>
<path d="M252.2 21.1737L119.84 34.2849C101.046 44.4988 86.0296 60.4786 77.0024 79.8703L65.4243 104.742L61.9392 114.423C56.7228 128.913 52.7238 143.813 49.9839 158.968L44.0356 191.869L39.3175 233.389L37.1387 271.518C36.928 275.206 38.5824 278.753 41.5432 280.962L42.8484 281.936C51.9103 288.696 59.3265 297.418 64.5425 307.449L67.2923 312.737C68.3382 314.748 68.5464 317.637 66.629 316.427L52.5282 309.822L36.7897 301.527C31.8115 298.904 27.3866 295.344 23.7578 291.043C21.8217 288.748 20.7596 285.843 20.7596 282.84V265.472L26.1068 209.484L31.454 173.312L40.8902 132.736L50.0119 102.54H38.4684C36.1903 102.54 34.2002 104.08 33.6284 106.285L33.1528 108.12C32.6501 110.059 32.2975 112.034 32.0982 114.027L31.454 120.469L28.3086 138.398L26.89 144.072C25.9572 147.803 24.315 151.32 22.0529 154.43L20.8977 156.019C19.0073 158.618 16.1055 160.296 12.9098 160.639C10.4339 160.904 7.93318 160.471 5.69075 159.388L4.90505 159.009C1.90594 157.561 0 154.525 0 151.194V118.17C0 116.982 0.153523 115.798 0.456757 114.649C3.82659 101.879 14.2604 92.1988 27.2466 89.794L31.454 89.0148H55.6736L69.3183 62.3386C78.6328 44.1283 93.6005 29.4288 111.976 20.4451C135.569 12.0936 160.158 6.88122 185.11 4.94194L208.226 3.1454L272.077 0H310.066C325.097 0 340.014 2.60687 354.155 7.70472L399.795 24.1585C403.925 25.6476 408.34 26.1794 412.706 25.7137L419.792 24.9578C426.274 24.2665 432.826 25.1695 438.879 27.5885L598.616 91.4255C601.869 92.7258 604.673 94.9474 606.682 97.8178L616.012 111.147C617.977 113.954 620.665 116.178 623.791 117.582L640.718 125.187L676.261 141.858L701.049 153.834C703.165 154.856 705.053 156.294 706.6 158.063C710.742 162.797 712.864 168.966 712.509 175.246L706.926 274.054C706.85 275.409 708.115 276.445 709.428 276.102L721.24 273.021L712.658 277.422C711.724 277.901 712.065 279.312 713.115 279.312H758.356L610.522 340.332L416.265 417.686C405.792 421.857 394.616 423.976 383.343 423.929L48.0301 422.534C41.6829 422.508 39.7179 413.931 45.4206 411.144L64.1662 401.982L110.404 381.537L92.7974 378.016C83.5781 376.172 74.5075 373.65 65.6596 370.47L58.819 368.012L51.735 364.356C43.5733 360.143 36.5277 354.054 31.1774 346.588C27.6294 341.638 25.1947 335.978 24.0406 329.997L22.3323 321.145L20.7596 297.555L39.5935 311.157C42.1313 312.99 44.8134 314.614 47.6135 316.014L64.0262 324.221C67.2645 325.84 69.4987 328.949 70.0006 332.534L71.4006 342.534L68.4266 341.271C55.1467 335.632 42.5681 328.466 30.9445 319.92L27.0504 317.056C31.0486 330.05 40.4559 340.689 52.8628 346.247L72.6588 355.116L99.3947 362.036L131.163 368.012L168.908 371.786L200.047 373.044H257.923L313.911 369.899L379.307 357.676C380.426 357.466 381.248 356.507 381.283 355.37L381.311 354.48C382.02 331.793 396.229 311.73 417.395 303.531L416.33 304.776C402.984 320.377 398.001 341.465 402.952 361.39L406.095 374.036C407.308 378.92 409.982 383.319 413.76 386.644C429.921 400.87 455.396 390.737 457.369 369.297L459.543 345.68L576.057 314.465C577.318 314.127 578.27 313.089 578.497 311.803L580.278 301.707C580.725 299.177 581.699 296.77 583.139 294.642C586.423 289.787 591.149 286.085 596.649 284.059L604.752 281.073C604.935 281.006 605.06 281.257 604.897 281.363C594.766 287.939 589.541 299.93 591.624 311.828L592.008 314.023C592.397 316.246 593.068 318.41 594.006 320.462C599.104 331.617 613.51 334.707 622.735 326.625L624.089 325.437C626.074 323.698 627.277 321.233 627.425 318.598L628.451 300.386L701.472 278.388C702.748 278.003 703.618 276.822 703.606 275.489L702.713 175.174C702.693 172.889 702.457 170.611 702.009 168.37C700.862 162.637 696.849 157.895 691.385 155.816L383.459 38.6568C341.649 22.7488 296.717 16.764 252.2 21.1737Z" fill="#A7AA63" fill-opacity="0.27"/>
<path d="M49.0684 221.122L66.6826 124.243L70.9543 128.173C73.3323 130.361 76.0571 132.139 79.0175 133.434C82.7068 135.048 86.6902 135.881 90.7172 135.881H118.582H171.424L129.1 154.272C122.104 157.312 115.41 161.007 109.109 165.308L92.4442 176.683C83.4885 182.795 75.395 190.084 68.3812 198.353L49.0684 221.122Z" fill="#A7AA63" fill-opacity="0.05"/>
<path d="M333.727 301.644L297.87 334.356L333.727 318.629C360.087 307.421 383.915 291.009 403.783 270.377L414.564 259.181L646.38 238.736L399.152 205.395L378.694 243.056C373.891 251.897 368.228 260.243 361.787 267.973L333.727 301.644Z" fill="#A7AA63" fill-opacity="0.05"/>
</svg>
