<svg width="131" height="103" viewBox="0 0 131 103" fill="none" xmlns="http://www.w3.org/2000/svg">
<path d="M127.471 30.2101H8.59412C7.65824 30.2102 6.76074 30.4814 6.09898 30.9639C5.43723 31.4464 5.06538 32.1008 5.06519 32.7831V100.427C5.06537 101.109 5.43722 101.763 6.09898 102.246C6.76074 102.728 7.65823 103 8.59412 103H127.471C128.407 103 129.304 102.728 129.966 102.246C130.628 101.763 131 101.109 131 100.427V32.7831C131 32.1008 130.628 31.4464 129.966 30.9639C129.304 30.4814 128.407 30.2102 127.471 30.2101V30.2101Z" fill="#E6E6E6"/>
<path d="M41.2032 71.748C41.2521 77.4584 38.3654 82.9751 33.112 87.2106C27.914 91.3698 20.1756 94.1281 12.3665 92.9869C5.17586 91.936 -0.667404 87.3538 0.0615627 81.8104C0.182505 80.6097 0.661163 79.4427 1.46412 78.3908C2.26707 77.3388 3.375 76.4271 4.71074 75.7193C6.04648 75.0116 7.57787 74.5247 9.19814 74.2927C10.8184 74.0607 12.4886 74.0891 14.0922 74.3759C20.9231 75.6684 23.6448 82.8462 17.9527 86.2154C16.5868 87.0238 14.6245 85.6099 16.0031 84.7939C19.766 82.5667 18.6035 77.6943 14.0617 76.4723C8.77387 75.0497 3.17138 78.1095 2.79112 82.051C2.34027 86.7243 7.25041 90.2436 13.2719 91.0722C19.7859 91.9685 26.2444 89.5377 30.6582 86.1825C35.7169 82.2864 38.5082 77.1128 38.4461 71.748C38.4585 71.4875 38.6092 71.2406 38.8664 71.0595C39.1235 70.8784 39.4671 70.7771 39.8247 70.7771C40.1822 70.7771 40.5258 70.8784 40.783 71.0595C41.0402 71.2406 41.1908 71.4875 41.2032 71.748V71.748Z" fill="#2F2E41"/>
<path d="M68.125 84.5271C95.2896 84.5271 117.311 68.4713 117.311 48.6655C117.311 28.8597 95.2896 12.804 68.125 12.804C40.9605 12.804 18.9392 28.8597 18.9392 48.6655C18.9392 68.4713 40.9605 84.5271 68.125 84.5271Z" fill="#768463"/>
<path d="M65.6098 63.9675L65.5586 62.6274C68.978 62.558 71.9927 62.4016 74.258 61.1949C74.9002 60.8334 75.4281 60.3752 75.8058 59.8517C76.1834 59.3281 76.4019 58.7513 76.4465 58.1606C76.4863 57.7997 76.4114 57.437 76.2277 57.1006C76.0439 56.7642 75.7563 56.4632 75.387 56.2211C73.8833 55.2952 71.4637 55.5949 69.7001 56.1845L68.1793 56.6929L71.0957 41.1537L72.9167 41.3356L70.436 54.5538C72.8323 54.0401 75.0527 54.2613 76.5735 55.1977C77.1574 55.5694 77.6156 56.0345 77.9122 56.5566C78.2088 57.0788 78.3358 57.6439 78.2832 58.2078C78.2296 59.0014 77.9386 59.7769 77.4305 60.4798C76.9225 61.1828 76.2097 61.7963 75.3422 62.2773C72.4316 63.8281 68.6491 63.9053 65.6098 63.9675Z" fill="#2F2E41"/>
<path d="M91.8188 42.4755H81.9194V43.8157H91.8188V42.4755Z" fill="#2F2E41"/>
<path d="M60.5729 42.4755H50.6736V43.8157H60.5729V42.4755Z" fill="#2F2E41"/>
<path d="M40.8801 103C44.5669 101.294 48.5514 99.9579 52.7266 99.0265C52.3282 97.9939 52.3345 96.9006 52.7449 95.8705C53.2991 94.5692 54.4157 93.4334 55.9279 92.6327C57.4401 91.8321 59.2669 91.4094 61.1356 91.4279H73.1198C74.9917 91.4105 76.8213 91.8341 78.3365 92.6358C79.8516 93.4374 80.9714 94.5743 81.5293 95.8772C81.9395 96.905 81.9458 97.9962 81.5472 99.0265C85.7218 99.9592 89.7061 101.296 93.3937 103H40.8801Z" fill="#2F2E41"/>
<path d="M124.466 35.3563C123.57 34.565 122.467 33.9114 121.222 33.4332C120.13 33.0173 118.916 32.799 117.684 32.7966C115.991 32.8118 114.348 33.215 112.988 33.9491C109.247 35.8789 106.656 40.04 106.656 44.8578C106.656 50.9019 110.736 55.914 116.039 56.7851C116.579 56.8734 117.13 56.9184 117.684 56.9191C123.759 56.9191 128.712 51.5117 128.712 44.8579C128.712 40.9983 127.049 37.5608 124.466 35.3563Z" fill="#3F3D56"/>
<path d="M23.4475 33.661H23.4386C22.2098 33.1048 20.7949 32.8057 19.3487 32.7966C18.1163 32.799 16.9028 33.0173 15.8103 33.4331C14.5651 33.9113 13.4625 34.565 12.5663 35.3562L12.5569 35.3629C9.98381 37.5675 8.32031 41.0049 8.32031 44.8578C8.32031 50.0576 11.3345 54.4934 15.5622 56.1887C16.7194 56.6615 18.0222 56.9128 19.3487 56.9191C19.6436 56.9191 19.9383 56.9056 20.2309 56.8789H20.2399C25.9013 56.383 30.3771 51.1833 30.3771 44.8578C30.377 39.7921 27.5006 35.4433 23.4475 33.661Z" fill="#3F3D56"/>
<path d="M16.2504 55.0359C16.4693 55.0358 16.6849 54.9976 16.8796 54.9247C17.0742 54.8518 17.2423 54.7462 17.3699 54.6166C17.4976 54.487 17.5811 54.3371 17.6136 54.1793C17.6461 54.0216 17.6266 53.8604 17.5568 53.7092C14.9222 47.9967 14.1296 41.9182 15.2408 35.9461C16.3519 29.974 19.3369 24.2691 23.9636 19.2749C28.5904 14.2806 34.7344 10.1315 41.918 7.14994C49.1017 4.16839 57.1315 2.43472 65.3835 2.08369C73.6355 1.73265 81.8874 2.77369 89.4979 5.12591C97.1084 7.47813 103.872 11.0782 109.264 15.6462C114.656 20.2143 118.531 25.6274 120.587 31.4647C122.643 37.3021 122.826 43.4065 121.12 49.3036C121.045 49.5645 121.114 49.8365 121.314 50.0599C121.514 50.2832 121.827 50.4396 122.184 50.4946C122.542 50.5496 122.915 50.4988 123.222 50.3532C123.528 50.2077 123.742 49.9794 123.818 49.7185C125.612 43.5184 125.422 37.1001 123.26 30.9625C121.099 24.8249 117.026 19.1334 111.357 14.3302C105.688 9.5271 98.5768 5.74181 90.5751 3.26858C82.5734 0.795347 73.8973 -0.299204 65.2211 0.0700225C56.5448 0.439249 48.1023 2.26231 40.5496 5.39747C32.9969 8.53264 26.5375 12.8955 21.6736 18.1468C16.8097 23.3982 13.6722 29.3966 12.5051 35.6758C11.338 41.9551 12.1727 48.346 14.9442 54.3518C15.0365 54.5511 15.2121 54.7243 15.4464 54.847C15.6808 54.9697 15.9619 55.0358 16.2504 55.0359Z" fill="#3F3D56"/>
</svg>
