<svg width="466" height="535" viewBox="0 0 466 535" fill="none" xmlns="http://www.w3.org/2000/svg">
<path d="M-235.833 376.69L-253.45 405.487C-255.331 408.561 -258.598 410.518 -262.195 410.728L-290.552 412.376L-351.616 414.359L-398.008 412.376L-375.01 417.531L-337.341 422.289L-315.93 425.065H-284.208H-247.729L-223.938 422.289L-178.116 413.589C-166.925 411.464 -155.969 408.245 -145.407 403.978C-116.446 392.279 -90.47 374.246 -69.3836 351.204L-62.9523 344.176L-28.0589 296.99L2.36472 245.533C3.39084 243.797 5.35898 242.848 7.35602 243.125L309.773 285.095L20.2297 223.688C17.1778 223.041 15.4574 219.788 16.6405 216.901L24.2812 198.258L45.693 138.78L58.778 79.6995L32.8063 138.979L6.83447 198.258L-28.0589 260.114L-47.3321 286.834C-57.7278 301.246 -69.2953 314.776 -81.9165 327.286L-87.9848 333.3C-101.081 346.28 -116.195 357.05 -132.739 365.191L-129.171 352.899L-130.757 346.555L-138.29 344.176L-235.833 376.69Z" fill="#768463" fill-opacity="0.5"/>
<path d="M-28.5651 227.353L-67.3135 285.888L-48.6772 236.324L-34.4027 184.38L-23.6967 117.765L-20.2961 61.088C-20.2138 59.7167 -18.8053 58.8347 -17.5357 59.3595L37.4777 82.0983C38.5075 82.524 38.9909 83.7093 38.5523 84.7338L0.830086 172.85C-7.30987 191.865 -17.1481 210.106 -28.5651 227.353Z" fill="#768463" fill-opacity="0.2"/>
<path d="M-440.436 294.215L-441.229 303.731L-401.974 313.644L-344.083 319.988L-305.621 322.367L-231.869 323.16L-193.01 320.781L-159.703 316.816L-137.101 309.282L-120.448 295.801L-113.31 283.509L-106.57 261.7L-96.6566 208.171L-84.3646 126.092L-32.4574 137.113C-28.4765 137.959 -24.426 138.434 -20.3576 138.533L-13.335 138.704C-11.2688 138.755 -9.20761 138.478 -7.22791 137.884C-6.57904 137.689 -5.95615 137.417 -5.37289 137.072L-3.33408 135.867C0.416656 133.651 3.26706 130.185 4.71704 126.076C4.78888 125.873 4.66855 125.652 4.45856 125.602L-79.8319 105.496C-80.8299 105.258 -81.4859 104.303 -81.3503 103.286L-76.8308 69.3902L-72.4691 47.5818L-66.5214 28.1526L-81.9207 25.7027C-83.1528 25.5067 -84.3777 26.0937 -84.9967 27.177L-91.8984 39.255C-95.0566 46.624 -97.2218 54.3798 -98.3372 62.3191L-103.279 97.4926C-103.347 97.9786 -103.758 98.3433 -104.249 98.3533L-120.31 98.681C-121.982 98.7152 -123.645 98.94 -125.267 99.3511L-150.979 105.87L-170.006 111.65C-178.194 114.137 -186.553 116.019 -195.017 117.279C-198.96 117.867 -202.942 118.162 -206.929 118.162H-379.606C-382.335 118.162 -385.04 117.659 -387.587 116.68C-388.452 116.347 -389.278 115.92 -390.049 115.406L-393.647 113.007L-399.198 108.249L-406.827 130.772C-407.262 132.057 -407.017 133.475 -406.175 134.538L-399.991 142.349L-393.06 149.28C-391.868 150.472 -390.568 151.552 -389.176 152.504L-385.609 154.945C-384.363 155.797 -383.027 156.51 -381.625 157.071C-379.086 158.086 -376.387 158.642 -373.653 158.711L-299.276 160.589L-207.285 159.796L-193.01 158.606L-183.307 156.933C-182.24 156.749 -181.419 155.889 -181.285 154.815C-180.908 151.797 -180.265 148.819 -179.363 145.914L-178.752 143.946C-177.687 140.512 -176.257 137.202 -174.488 134.072L-174.358 133.842C-172.795 131.076 -170.752 128.612 -168.324 126.564L-165.301 124.013C-161.356 120.684 -156.707 118.294 -151.704 117.022L-135.912 113.007L-139.187 113.903C-152.447 117.531 -163.432 126.823 -169.209 139.298C-170.266 141.581 -170.947 144.021 -171.225 146.522L-171.995 153.452L-172.788 166.14L-172.23 185.675C-172.078 190.981 -170.038 196.059 -166.477 199.995C-165.185 201.422 -163.382 202.281 -161.46 202.385L-158.281 202.557C-152.972 202.844 -147.868 200.473 -144.663 196.231C-139.192 188.99 -135.749 180.422 -134.689 171.408L-130.377 134.754C-130.124 132.604 -128.68 130.78 -126.645 130.04C-125.955 129.789 -125.227 129.661 -124.492 129.661H-107.759L-121.353 216.53C-123.125 227.853 -125.887 239 -129.607 249.841L-130.955 253.77L-135.622 267.369C-137.125 271.749 -139.4 275.825 -142.339 279.403L-142.873 280.053C-145.617 283.393 -148.869 286.282 -152.51 288.612C-155.441 290.488 -158.613 291.958 -161.94 292.981L-172.391 296.197L-189.441 299.37L-211.646 301.749L-236.23 303.335L-285.795 303.731L-391.268 298.973L-440.436 294.215Z" fill="#768463" fill-opacity="0.5"/>
<path d="M-154.43 24.9446L-338.927 43.2202L-344.103 46.0333C-364.434 57.0823 -380.678 74.3685 -390.443 95.3455L-407.525 132.04L-413.961 149.918C-419.177 164.408 -423.176 179.308 -425.916 194.463L-434.488 241.875L-440.436 294.215L-443.27 343.82C-443.481 347.508 -441.826 351.056 -438.866 353.265L-432.396 358.091C-423.334 364.852 -415.918 373.573 -410.702 383.604L-405.17 394.243C-403.851 396.778 -403.589 400.42 -406.006 398.895L-423.782 390.568L-443.622 380.112C-449.898 376.804 -455.476 372.317 -460.05 366.895C-462.491 364.002 -463.83 360.339 -463.83 356.555V334.659L-457.089 264.08L-450.348 218.48L-438.453 167.33L-426.954 129.264H-442.514C-444.792 129.264 -446.782 130.804 -447.354 133.009L-448.404 137.057C-448.906 138.996 -449.259 140.971 -449.458 142.964L-450.348 151.866L-454.314 174.467L-456.102 181.62C-457.278 186.324 -459.348 190.757 -462.2 194.678L-463.656 196.68C-466.039 199.957 -469.697 202.073 -473.726 202.505C-476.847 202.839 -479.999 202.293 -482.826 200.928L-483.817 200.45C-487.597 198.625 -490 194.797 -490 190.599V148.968C-490 147.469 -489.806 145.978 -489.424 144.529C-485.176 128.431 -472.023 116.228 -455.652 113.196L-450.348 112.214H-419.817L-402.616 78.5854C-390.874 55.6291 -372.005 37.0986 -348.84 25.7735C-319.099 15.2455 -288.101 8.67462 -256.646 6.22991L-227.506 3.96516L-147.014 0H-93.2039C-78.1726 0 -63.2552 2.60687 -49.1147 7.70472L15.6254 31.0445C19.7559 32.5336 24.1707 33.0654 28.5366 32.5997L41.7711 31.188C48.2526 30.4966 54.8049 31.3997 60.8577 33.8186L265.927 115.772C269.181 117.073 271.984 119.294 273.994 122.165L287.341 141.232C289.306 144.039 291.994 146.263 295.12 147.667L317.703 157.813L362.509 178.829L393.758 193.926C396.425 195.215 398.805 197.028 400.755 199.257C405.977 205.225 408.651 213.002 408.204 220.919L401.126 346.193C401.05 347.547 402.315 348.583 403.628 348.241L419.211 344.176L407.432 350.216C406.498 350.695 406.839 352.106 407.888 352.106H466L279.638 429.03L30.6204 528.19C20.1476 532.36 8.97107 534.479 -2.30139 534.432L-436.15 532.628C-442.497 532.601 -444.462 524.024 -438.759 521.237L-409.111 506.747L-350.823 480.974L-376.627 475.813C-385.846 473.969 -394.917 471.447 -403.764 468.267L-415.852 463.924L-424.782 459.314C-435.071 454.004 -443.952 446.328 -450.697 436.917C-455.17 430.676 -458.239 423.541 -459.694 416.001L-461.847 404.843L-463.83 375.104L-439.094 392.969C-436.556 394.802 -433.874 396.426 -431.074 397.826L-407.939 409.394C-404.701 411.013 -402.467 414.122 -401.965 417.707L-399.991 431.806L-408.949 428.002C-422.229 422.362 -434.808 415.197 -446.431 406.65L-455.9 399.688C-450.86 416.068 -439 429.48 -423.36 436.487L-398.405 447.667L-364.701 456.39L-324.653 463.924L-277.071 468.682L-237.816 470.268H-164.857L-94.2771 466.303L-11.8374 450.893C-10.4273 450.63 -9.39072 449.421 -9.34592 447.987L-9.31088 446.865C-8.41714 418.266 9.49521 392.974 36.1767 382.638L34.8342 384.207C18.0108 403.874 11.7289 430.459 17.9701 455.576L21.9315 471.518C23.4615 477.675 26.8325 483.22 31.595 487.412C51.9675 505.346 84.0814 492.571 86.5692 465.544L89.3098 435.771L236.335 396.382C237.837 395.98 238.969 394.744 239.239 393.214L241.511 380.338C242.074 377.149 243.303 374.114 245.117 371.432C249.258 365.311 255.215 360.645 262.148 358.09L272.364 354.327C272.594 354.242 272.752 354.558 272.547 354.692C259.775 362.982 253.189 378.099 255.813 393.097L256.298 395.865C256.788 398.666 257.634 401.394 258.817 403.981C265.243 418.043 283.404 421.939 295.033 411.75L296.74 410.253C299.243 408.061 300.758 404.954 300.945 401.632L302.239 378.673L394.852 350.773C396.128 350.388 396.998 349.207 396.986 347.873L395.855 220.828C395.83 217.948 395.532 215.076 394.967 212.251C393.522 205.024 388.464 199.046 381.575 196.425L-23.1711 42.4276C-64.9814 26.5197 -109.914 20.5349 -154.43 24.9446Z" fill="#768463" fill-opacity="0.5"/>
<path d="M-69.2967 380.259L-114.5 421.497L-69.2967 401.671C-36.0668 387.542 -6.0294 366.853 19.0173 340.843L32.6079 326.729L324.84 300.956L13.1786 258.925L-14.4933 309.866C-19.2959 318.708 -24.9589 327.054 -31.4001 334.783L-69.2967 380.259Z" fill="#768463" fill-opacity="0.2"/>
<path d="M357.304 199.656L209.851 141.16L346.306 210.615C357.611 216.369 365.883 226.722 368.999 239.019L378.766 277.561V231.26C378.766 217.322 370.26 204.796 357.304 199.656Z" fill="#768463" fill-opacity="0.2"/>
</svg>
