<svg width="522" height="535" viewBox="0 0 522 535" fill="none" xmlns="http://www.w3.org/2000/svg">
<path d="M159.259 53.982L167.078 51.2808C184.111 45.3964 201.745 41.4173 219.655 39.4162L263.683 34.4968L338.625 32.1177L307.911 36.9896C290.085 39.817 272.514 44.0635 255.365 49.6884L242.285 53.9786C235.15 56.3188 228.217 59.2333 221.553 62.6934L218.39 64.3359C213.434 66.9091 208.669 69.8337 204.131 73.0875L189.931 83.2682C181.793 89.5688 174.757 97.1765 169.11 105.781L160.986 118.162L153.055 137.591L93.1814 119.748L101.597 103.241C109.579 87.5832 121.706 74.4173 136.657 65.1782L139.939 63.1502C146.021 59.3914 152.5 56.3166 159.259 53.982Z" fill="#768463" fill-opacity="0.2"/>
<path d="M254.167 376.69L236.55 405.487C234.669 408.561 231.402 410.518 227.805 410.728L199.448 412.376L138.384 414.359L91.9917 412.376L114.99 417.531L152.659 422.289L174.07 425.065H205.792H242.271L266.062 422.289L311.884 413.589C323.075 411.464 334.031 408.245 344.593 403.978C373.554 392.279 399.53 374.246 420.616 351.204L427.048 344.176L461.941 296.99L492.365 245.533C493.391 243.797 495.359 242.848 497.356 243.125L799.773 285.095L510.23 223.688C507.178 223.041 505.457 219.788 506.641 216.901L514.281 198.258L535.693 138.78L548.778 79.6995L522.806 138.979L496.834 198.258L461.941 260.114L442.668 286.834C432.272 301.246 420.705 314.776 408.083 327.286L402.015 333.3C388.919 346.28 373.805 357.05 357.261 365.191L360.829 352.899L359.243 346.555L351.71 344.176L254.167 376.69Z" fill="#768463" fill-opacity="0.5"/>
<path d="M461.434 227.353L422.686 285.888L441.322 236.324L455.597 184.38L466.303 117.765L469.703 61.0879C469.785 59.7166 471.194 58.8346 472.464 59.3594L527.477 82.0982C528.507 82.5239 528.99 83.7092 528.552 84.7336L490.829 172.85C482.689 191.865 472.851 210.106 461.434 227.353Z" fill="#768463" fill-opacity="0.05"/>
<path d="M49.5643 294.215L48.7712 303.731L88.0263 313.644L145.918 319.989L184.38 322.368L258.132 323.161L296.99 320.782L330.298 316.816L352.899 309.283L369.553 295.801L376.69 283.509L383.431 261.701L393.344 208.171L405.636 126.092L457.543 137.114C461.524 137.959 465.574 138.434 469.643 138.533L476.665 138.705C478.731 138.755 480.793 138.478 482.772 137.884C483.421 137.69 484.044 137.417 484.627 137.072L486.666 135.868C490.417 133.651 493.267 130.185 494.717 126.077C494.789 125.873 494.669 125.652 494.459 125.602L410.168 105.496C409.17 105.258 408.514 104.303 408.65 103.286L413.169 69.3905L417.531 47.5821L423.479 28.1528L408.08 25.7029C406.847 25.5069 405.623 26.094 405.004 27.1773L398.102 39.2553C394.944 46.6242 392.778 54.3801 391.663 62.3193L386.721 97.4929C386.653 97.9789 386.242 98.3435 385.751 98.3535L369.691 98.6813C368.018 98.7154 366.355 98.9402 364.733 99.3514L339.021 105.87L319.994 111.65C311.807 114.138 303.447 116.019 294.983 117.28C291.04 117.867 287.058 118.162 283.071 118.162H110.394C107.665 118.162 104.96 117.66 102.413 116.68C101.548 116.347 100.722 115.92 99.951 115.406L96.3532 113.007L90.8019 108.249L83.173 130.773C82.7378 132.057 82.9834 133.475 83.8254 134.539L90.0089 142.349L96.9399 149.28C98.1322 150.473 99.4326 151.552 100.824 152.504L104.392 154.945C105.637 155.797 106.973 156.51 108.375 157.071C110.914 158.087 113.613 158.642 116.347 158.711L190.724 160.589L282.716 159.796L296.99 158.607L306.693 156.934C307.76 156.75 308.581 155.89 308.715 154.815C309.092 151.798 309.736 148.819 310.637 145.914L311.248 143.946C312.314 140.512 313.743 137.202 315.512 134.073L315.642 133.842C317.205 131.077 319.249 128.612 321.676 126.564L324.699 124.014C328.644 120.685 333.293 118.294 338.297 117.022L354.089 113.007L350.813 113.903C337.553 117.531 326.568 126.823 320.792 139.298C319.734 141.582 319.053 144.021 318.776 146.522L318.006 153.452L317.213 166.14L317.771 185.675C317.922 190.981 319.962 196.059 323.523 199.995C324.815 201.422 326.618 202.282 328.54 202.386L331.719 202.557C337.028 202.844 342.132 200.473 345.337 196.232C350.808 188.99 354.251 180.422 355.311 171.408L359.624 134.754C359.877 132.604 361.32 130.78 363.355 130.04C364.045 129.789 364.774 129.661 365.508 129.661H382.241L368.647 216.53C366.875 227.854 364.113 239 360.393 249.841L359.045 253.77L354.379 267.369C352.876 271.75 350.601 275.825 347.661 279.404L347.128 280.053C344.384 283.394 341.132 286.282 337.49 288.612C334.559 290.488 331.387 291.958 328.061 292.982L317.609 296.198L300.559 299.37L278.354 301.749L253.77 303.335L204.206 303.731L98.7323 298.973L49.5643 294.215Z" fill="#768463" fill-opacity="0.5"/>
<path d="M267.252 435.375L233.112 438.409C232.142 438.496 231.274 439.048 230.785 439.89L222.526 454.094C222.138 454.761 222.619 455.597 223.39 455.597H248.219L289.06 455.201L320.385 453.615L323.02 453.15C325.55 452.703 327.632 450.907 328.444 448.47L332.677 435.771L338.275 421.775C338.582 421.009 337.88 420.222 337.084 420.439L308.489 428.237L267.252 435.375Z" fill="#768463" fill-opacity="0.2"/>
<path d="M335.57 24.9446L151.073 43.2202L145.897 46.0333C125.566 57.0823 109.322 74.3685 99.5571 95.3455L82.4753 132.04L76.0391 149.918C70.8226 164.408 66.8237 179.308 64.0838 194.463L55.5122 241.875L49.5645 294.215L46.7299 343.82C46.5191 347.508 48.1736 351.056 51.1344 353.265L57.6041 358.091C66.6659 364.852 74.0822 373.573 79.2981 383.604L84.8301 394.243C86.1486 396.778 86.411 400.42 83.9939 398.895L66.2182 390.568L46.3779 380.112C40.1023 376.804 34.5242 372.317 29.9496 366.895C27.5089 364.002 26.1701 360.34 26.1701 356.555V334.659L32.9108 264.08L39.6516 218.48L51.5471 167.33L63.046 129.264H47.4858C45.2076 129.264 43.2175 130.804 42.6458 133.009L41.5963 137.057C41.0936 138.996 40.741 140.971 40.5417 142.964L39.6516 151.866L35.6864 174.467L33.8981 181.62C32.7222 186.324 30.652 190.757 27.8003 194.678L26.3441 196.68C23.961 199.957 20.303 202.073 16.2743 202.505C13.1532 202.839 10.0007 202.293 7.17389 200.928L6.18341 200.45C2.40266 198.625 0 194.797 0 190.599V148.968C0 147.469 0.193534 145.978 0.575798 144.529C4.82388 128.431 17.977 116.228 34.3477 113.196L39.6516 112.214H70.1833L87.3842 78.5854C99.1262 55.6291 117.995 37.0986 141.16 25.7735C170.901 15.2455 201.899 8.67462 233.354 6.22991L262.494 3.96516L342.986 0H396.796C411.827 0 426.745 2.60687 440.885 7.70473L505.625 31.0445C509.756 32.5336 514.171 33.0654 518.537 32.5997L531.771 31.188C538.253 30.4966 544.805 31.3997 550.858 33.8187L755.927 115.772C759.181 117.073 761.984 119.294 763.994 122.165L777.341 141.232C779.306 144.039 781.994 146.263 785.12 147.667L807.703 157.813L852.509 178.829L883.758 193.926C886.425 195.215 888.805 197.028 890.755 199.257C895.977 205.225 898.651 213.002 898.204 220.919L891.126 346.193C891.05 347.547 892.315 348.583 893.628 348.241L909.211 344.176L897.432 350.216C896.498 350.695 896.839 352.106 897.888 352.106H956L769.638 429.03L520.62 528.19C510.148 532.36 498.971 534.479 487.699 534.433L53.8504 532.628C47.5032 532.601 45.5381 524.024 51.2408 521.237L80.8893 506.747L139.177 480.974L113.373 475.813C104.154 473.969 95.0835 471.447 86.2356 468.267L74.1485 463.924L65.2183 459.315C54.9294 454.004 46.0476 446.328 39.303 436.917C34.8302 430.676 31.761 423.541 30.306 416.001L28.1526 404.843L26.1701 375.104L50.9061 392.969C53.444 394.802 56.1261 396.426 58.9262 397.826L82.0609 409.394C85.2992 411.013 87.5334 414.122 88.0353 417.707L90.0091 431.806L81.0509 428.002C67.771 422.362 55.1924 415.197 43.5688 406.65L34.1004 399.688C39.1405 416.068 50.9995 429.48 66.6399 436.487L91.5952 447.667L125.299 456.39L165.347 463.924L212.929 468.682L252.184 470.268H325.143L395.723 466.303L478.163 450.893C479.573 450.63 480.609 449.421 480.654 447.987L480.689 446.865C481.583 418.266 499.495 392.974 526.177 382.638L524.834 384.207C508.011 403.874 501.729 430.459 507.97 455.576L511.931 471.518C513.462 477.675 516.833 483.22 521.595 487.412C541.967 505.346 574.081 492.571 576.569 465.544L579.31 435.771L726.335 396.382C727.837 395.98 728.969 394.744 729.239 393.214L731.511 380.338C732.074 377.149 733.303 374.114 735.117 371.432C739.258 365.311 745.215 360.645 752.148 358.09L762.364 354.327C762.594 354.242 762.752 354.558 762.547 354.692C749.775 362.982 743.189 378.099 745.813 393.097L746.298 395.865C746.788 398.666 747.634 401.394 748.817 403.981C755.243 418.043 773.404 421.939 785.033 411.75L786.74 410.253C789.243 408.061 790.758 404.954 790.945 401.632L792.239 378.673L884.852 350.773C886.128 350.388 886.998 349.207 886.986 347.873L885.855 220.828C885.83 217.948 885.532 215.076 884.967 212.251C883.522 205.024 878.464 199.046 871.575 196.425L466.829 42.4277C425.019 26.5197 380.086 20.5349 335.57 24.9446Z" fill="#768463" fill-opacity="0.5"/>
<path d="M61.8564 278.751L84.0613 156.624L89.4463 161.578C92.4441 164.336 95.8791 166.577 99.611 168.21C104.262 170.245 109.283 171.295 114.36 171.295H149.486H216.101L160.005 195.67C153.008 198.71 146.315 202.406 140.014 206.706L113.02 225.131C104.064 231.243 95.9708 238.532 88.957 246.801L61.8564 278.751Z" fill="#768463" fill-opacity="0.2"/>
<path d="M420.704 380.259L375.501 421.497L420.704 401.671C453.934 387.542 483.971 366.853 509.018 340.843L522.609 326.729L814.841 300.956L503.179 258.925L475.507 309.866C470.705 318.708 465.042 327.054 458.601 334.783L420.704 380.259Z" fill="#768463" fill-opacity="0.05"/>
</svg>
