<svg id="SvgjsSvg1006" width="288" height="288" xmlns="http://www.w3.org/2000/svg" version="1.1" xmlns:xlink="http://www.w3.org/1999/xlink" xmlns:svgjs="http://svgjs.com/svgjs"><defs id="SvgjsDefs1007"></defs><g id="SvgjsG1008"><svg xmlns="http://www.w3.org/2000/svg" viewBox="0 0 700 700" width="288" height="288"><path fill="#989898" d="m576.48 195.15c-14.27 0-25.832 11.562-25.832 25.84v176.59c-1.5898 0.54688-3.1914 1.0039-4.7383 1.7539-0.45312 0.20703-24.719 11.816-63.875 22.656-12.465-8.7422-28.301-12.641-44.426-9.5195-59.242 11.492-116.73 11.637-175.9 0.36328-15.961-3.0078-31.617 0.81641-44 9.4062-39.027-10.824-63.203-22.477-63.918-22.824-1.4492-0.71875-2.9453-1.1484-4.4336-1.6641l0.003906-176.77c0-14.262-11.562-25.84-25.84-25.84-14.27 0-25.832 11.57-25.832 25.84v211c0 1.2422 0.19141 2.4141 0.35938 3.6055 0.53906 13.703 8.1523 26.723 21.301 33.258 2.2305 1.0977 32.363 15.836 80.457 28.918 8.0547 14.75 22.383 25.906 40.176 29.305 36.391 6.9141 72.918 10.434 108.61 10.434 36.52 0 73.922-3.668 111.16-10.887 17.602-3.3984 31.781-14.422 39.809-28.969 48.02-13.016 78.23-27.613 80.465-28.711 12.246-6.0078 19.824-17.617 21.309-30.219 0.58203-2.1562 1.0039-4.3906 1.0039-6.7305v-211c-0.003907-14.266-11.582-25.828-25.855-25.828zm-390.38 12.914-0.003907 162.91c5.1406 1.9883 11.391 4.3164 18.879 6.8047 20.031-10.148 43.449-13.598 65.832-9.3633 53.918 10.289 104.66 10.16 158.81-0.35156 22.598-4.3672 45.961-0.92578 66.047 9.1914 6.8867-2.3008 12.734-4.4414 17.645-6.3398l0.09375-162.86c0-29.109 21.559-53.059 49.52-57.266l0.003907-78.766c0-14.27-10.793-21-25.832-25.844 0 0-81.91-23.688-185.72-23.688-103.84 0-188.94 23.688-188.94 23.688-14.668 4.5586-25.84 11.562-25.84 25.844v78.77c27.945 4.2031 49.508 28.16 49.508 57.27z" class="color44b010 svgShape"></path></svg></g></svg>