<svg width="92" height="92" viewBox="0 0 92 92" fill="none" xmlns="http://www.w3.org/2000/svg">
<path d="M33.5 41.3781H39.75C39.75 43.0969 38.3438 44.5031 36.625 44.5031C34.9062 44.5031 33.5 43.0938 33.5 41.3781Z" fill="#263238"/>
<path d="M50.6875 36.625C51.5312 36.625 52.25 37.3437 52.25 38.1875C52.25 39.0312 51.5312 39.75 50.6875 39.75C49.8437 39.75 49.125 39.0312 49.125 38.1875C49.125 37.3437 49.8437 36.625 50.6875 36.625Z" fill="#263238"/>
<path d="M22.5625 36.625C23.4062 36.625 24.125 37.3437 24.125 38.1875C24.125 39.0312 23.4062 39.75 22.5625 39.75C21.7187 39.75 21 39.0312 21 38.1875C21 37.3437 21.7187 36.625 22.5625 36.625Z" fill="#263238"/>
<path d="M69.2187 69.1281L62.2937 62.2063" stroke="#455A64" stroke-miterlimit="10" stroke-linecap="round" stroke-linejoin="round"/>
<path d="M89.4812 80.6438L78.5437 69.7063C76.1812 67.3438 72.0688 67.3438 69.7063 69.7063C68.525 70.8875 67.875 72.4563 67.875 74.125C67.875 75.7938 68.525 77.3625 69.7063 78.5438L80.6438 89.4813C81.825 90.6625 83.3938 91.3125 85.0625 91.3125C86.7312 91.3125 88.3 90.6625 89.4812 89.4813C90.6625 88.3 91.3125 86.7313 91.3125 85.0625C91.3125 83.3938 90.6625 81.825 89.4812 80.6438Z" stroke="#455A64" stroke-miterlimit="10" stroke-linecap="round" stroke-linejoin="round"/>
<path d="M36.625 72.5625C56.4727 72.5625 72.5625 56.4727 72.5625 36.625C72.5625 16.7773 56.4727 0.6875 36.625 0.6875C16.7773 0.6875 0.6875 16.7773 0.6875 36.625C0.6875 56.4727 16.7773 72.5625 36.625 72.5625Z" stroke="#455A64" stroke-miterlimit="10" stroke-linecap="round" stroke-linejoin="round"/>
<path d="M33.5 41.3781H39.75C39.75 43.0969 38.3438 44.5031 36.625 44.5031C34.9062 44.5031 33.5 43.0938 33.5 41.3781Z" stroke="#455A64" stroke-miterlimit="10" stroke-linecap="round" stroke-linejoin="round"/>
<path d="M50.6875 36.625C51.5313 36.625 52.25 37.3437 52.25 38.1875C52.25 39.0313 51.5313 39.75 50.6875 39.75C49.8437 39.75 49.125 39.0313 49.125 38.1875C49.125 37.3437 49.8437 36.625 50.6875 36.625Z" stroke="#455A64" stroke-miterlimit="10" stroke-linecap="round" stroke-linejoin="round"/>
<path d="M22.5625 36.625C23.4063 36.625 24.125 37.3437 24.125 38.1875C24.125 39.0313 23.4063 39.75 22.5625 39.75C21.7187 39.75 21 39.0313 21 38.1875C21 37.3437 21.7187 36.625 22.5625 36.625Z" stroke="#455A64" stroke-miterlimit="10" stroke-linecap="round" stroke-linejoin="round"/>
<path d="M69.2187 69.1281L62.2937 62.2063" stroke="#263238" stroke-miterlimit="10" stroke-linecap="round" stroke-linejoin="round"/>
<path d="M89.4812 80.6438L78.5437 69.7063C76.1812 67.3438 72.0688 67.3438 69.7063 69.7063C68.525 70.8875 67.875 72.4563 67.875 74.125C67.875 75.7938 68.525 77.3625 69.7063 78.5438L80.6438 89.4813C81.825 90.6625 83.3938 91.3125 85.0625 91.3125C86.7312 91.3125 88.3 90.6625 89.4812 89.4813C90.6625 88.3 91.3125 86.7313 91.3125 85.0625C91.3125 83.3938 90.6625 81.825 89.4812 80.6438Z" stroke="#263238" stroke-miterlimit="10" stroke-linecap="round" stroke-linejoin="round"/>
<path d="M36.625 72.5625C56.4727 72.5625 72.5625 56.4727 72.5625 36.625C72.5625 16.7773 56.4727 0.6875 36.625 0.6875C16.7773 0.6875 0.6875 16.7773 0.6875 36.625C0.6875 56.4727 16.7773 72.5625 36.625 72.5625Z" stroke="#263238" stroke-miterlimit="10" stroke-linecap="round" stroke-linejoin="round"/>
<path d="M33.5 41.3781H39.75C39.75 43.0969 38.3438 44.5031 36.625 44.5031C34.9062 44.5031 33.5 43.0938 33.5 41.3781Z" stroke="#263238" stroke-miterlimit="10" stroke-linecap="round" stroke-linejoin="round"/>
<path d="M50.6875 36.625C51.5313 36.625 52.25 37.3437 52.25 38.1875C52.25 39.0313 51.5313 39.75 50.6875 39.75C49.8437 39.75 49.125 39.0313 49.125 38.1875C49.125 37.3437 49.8437 36.625 50.6875 36.625Z" stroke="#263238" stroke-miterlimit="10" stroke-linecap="round" stroke-linejoin="round"/>
<path d="M22.5625 36.625C23.4063 36.625 24.125 37.3437 24.125 38.1875C24.125 39.0313 23.4063 39.75 22.5625 39.75C21.7187 39.75 21 39.0313 21 38.1875C21 37.3437 21.7187 36.625 22.5625 36.625Z" stroke="#263238" stroke-miterlimit="10" stroke-linecap="round" stroke-linejoin="round"/>
</svg>
