<svg width="131" height="103" viewBox="0 0 131 103" fill="none" xmlns="http://www.w3.org/2000/svg">
<g opacity="0.6" clip-path="url(#clip0_1602_1140)">
<path d="M4.15183 79.0521C4.80104 71.0168 8.72489 62.9959 14.9682 60.1903C12.6612 68.5127 12.8562 77.5563 15.5187 85.7211C16.5549 88.8654 17.9775 92.2318 17.1358 95.4605C16.6121 97.4694 15.2589 99.0365 13.7303 100.038C12.2016 101.039 10.492 101.548 8.80377 102.046L8.47683 102.392C5.62293 95.0975 3.50262 87.0874 4.15183 79.0521Z" fill="#F0F0F0"/>
<path d="M15.0341 60.3397C11.509 65.3849 9.29034 71.8283 8.90242 78.4339C8.81855 79.862 8.83597 81.3196 9.12297 82.7155C9.41132 84.0736 9.99434 85.3133 10.8114 86.3058C11.558 87.2497 12.4117 88.1104 12.956 89.258C13.5298 90.4676 13.5808 91.8609 13.2341 93.1759C12.8099 94.7849 11.9342 96.1131 11.0407 97.3759C10.0486 98.778 8.99973 100.215 8.60453 102.045C8.55665 102.267 8.27576 102.164 8.32357 101.942C9.01115 98.7589 11.5019 96.8843 12.647 94.0004C13.1813 92.6547 13.3844 91.1057 12.8266 89.7206C12.3388 88.5095 11.459 87.621 10.6963 86.6732C9.89549 85.6779 9.2742 84.5778 8.9375 83.2373C8.59308 81.866 8.52862 80.4062 8.58201 78.9817C8.72295 75.7527 9.2817 72.5706 10.2378 69.5521C11.3133 66.0997 12.8678 62.8958 14.8342 60.0791C14.956 59.9048 15.1551 60.1666 15.0341 60.3398L15.0341 60.3397Z" fill="white"/>
<path d="M8.9349 76.2787C8.02268 76.0405 7.20998 75.4169 6.64195 74.5192C6.07392 73.6215 5.78755 72.5081 5.83398 71.378C5.83622 71.332 5.85311 71.2888 5.88112 71.2575C5.90912 71.2263 5.94603 71.2094 5.98408 71.2105C6.02212 71.2116 6.05833 71.2306 6.08507 71.2634C6.11181 71.2962 6.127 71.3404 6.12742 71.3865C6.08259 72.4388 6.34943 73.4758 6.87979 74.3104C7.41014 75.1451 8.16908 75.7224 9.01962 75.938C9.20441 75.9852 9.11863 76.3256 8.9349 76.2787V76.2787Z" fill="white"/>
<path d="M10.3807 85.8877C11.9925 84.6505 13.1604 82.7222 13.6518 80.4872C13.7003 80.2657 13.9812 80.3687 13.9327 80.5899C13.4179 82.9146 12.199 84.9183 10.5195 86.2012C10.3593 86.3234 10.2214 86.0092 10.3807 85.8877Z" fill="white"/>
<path d="M11.5925 66.4281C11.9296 66.6094 12.2986 66.6864 12.6664 66.6521C13.0341 66.6178 13.389 66.4733 13.6993 66.2315C13.8581 66.107 13.9958 66.4213 13.8381 66.5451C13.4942 66.8102 13.1021 66.9693 12.6959 67.0083C12.2897 67.0472 11.8818 66.965 11.5078 66.7688C11.4713 66.7539 11.4408 66.7226 11.4226 66.6815C11.4043 66.6403 11.3997 66.5922 11.4097 66.5471C11.4211 66.502 11.4467 66.4643 11.4809 66.442C11.5151 66.4197 11.5553 66.4147 11.5925 66.4281H11.5925Z" fill="white"/>
<path d="M34.4771 73.8888C34.3798 73.97 34.2824 74.0512 34.185 74.1354C32.8811 75.2352 31.6531 76.4616 30.5129 77.8025C30.4234 77.9045 30.334 78.0095 30.2471 78.1144C27.5287 81.3805 25.334 85.2302 23.7746 89.4677C23.1553 91.1547 22.6428 92.8963 22.2415 94.6775C21.6873 97.1375 21.2479 99.8582 20.09 101.893C19.9711 102.106 19.8415 102.311 19.7018 102.506L8.84993 102.849C8.82495 102.835 8.79991 102.823 8.7748 102.809L8.34204 102.847C8.35745 102.753 8.37509 102.657 8.3905 102.563C8.39925 102.509 8.41042 102.454 8.41917 102.4C8.42577 102.364 8.43249 102.327 8.43673 102.294C8.43889 102.282 8.44117 102.27 8.4434 102.261C8.44764 102.228 8.45449 102.197 8.4588 102.167C8.55617 101.626 8.65685 101.085 8.76082 100.544C8.76076 100.541 8.76076 100.541 8.76311 100.538C9.56405 96.4182 10.6557 92.3429 12.2227 88.5982C12.2699 88.4855 12.3169 88.3699 12.369 88.2571C13.0831 86.5739 13.9094 84.9643 14.8398 83.4443C15.3514 82.614 15.8974 81.8156 16.4756 81.0523C17.9727 79.0834 19.7159 77.4123 21.6413 76.1002C25.4799 73.4853 29.9654 72.3882 34.1577 73.7788C34.2649 73.8145 34.3698 73.8502 34.4771 73.8888Z" fill="#F0F0F0"/>
<path d="M34.4562 74.0566C29.1366 75.5114 24.1659 79.0364 20.5763 84.0274C19.8003 85.1064 19.0905 86.2829 18.6265 87.607C18.1824 88.9019 18.0324 90.3173 18.192 91.7063C18.3194 93.005 18.5738 94.3155 18.4386 95.6291C18.2961 97.0138 17.645 98.1635 16.7152 98.9604C15.5777 99.9354 14.219 100.357 12.8785 100.713C11.3902 101.108 9.83914 101.49 8.6151 102.662C8.46679 102.804 8.29368 102.517 8.44177 102.375C10.5714 100.335 13.4909 100.657 15.8371 99.1901C16.9319 98.5057 17.8632 97.4171 18.1055 95.904C18.3174 94.5809 18.0561 93.2292 17.9177 91.9156C17.7725 90.5363 17.8226 89.2043 18.2194 87.8882C18.6253 86.5418 19.2986 85.3292 20.0485 84.2308C21.7643 81.7555 23.7904 79.6228 26.0526 77.9106C28.6254 75.9392 31.4574 74.516 34.4261 73.7026C34.6098 73.6524 34.6388 74.0067 34.4562 74.0566H34.4562Z" fill="white"/>
<path d="M21.6726 82.3304C21.0625 81.4743 20.7233 80.383 20.7155 79.2515C20.7077 78.1201 21.0318 77.0221 21.63 76.1537C21.7515 75.9784 21.9818 76.1992 21.8601 76.3747C21.3018 77.1821 21 78.2049 21.009 79.2585C21.0181 80.3121 21.3374 81.3271 21.9094 82.1203C22.0335 82.2928 21.796 82.502 21.6726 82.3304V82.3304Z" fill="white"/>
<path d="M18.0561 91.0581C19.9573 91.247 21.8473 90.56 23.3493 89.1342C23.498 88.9928 23.6712 89.2801 23.5226 89.4213C21.9573 90.9015 19.9893 91.6116 18.0112 91.4098C17.8227 91.3904 17.8686 91.0388 18.0561 91.0581H18.0561Z" fill="white"/>
<path d="M28.6856 76.4054C28.8648 76.7963 29.1212 77.1272 29.4318 77.3682C29.7424 77.6093 30.0976 77.7531 30.4654 77.7866C30.654 77.803 30.6079 78.1546 30.4205 78.1382C30.0143 78.0989 29.6222 77.9396 29.2785 77.6742C28.9348 77.4087 28.65 77.0453 28.4488 76.6156C28.4271 76.577 28.4183 76.5298 28.4241 76.4837C28.43 76.4375 28.4502 76.3957 28.4806 76.3669C28.512 76.3393 28.5512 76.3278 28.5896 76.3351C28.628 76.3423 28.6625 76.3675 28.6856 76.4054V76.4054Z" fill="white"/>
<path d="M98.1676 7.05004C98.0056 6.46991 95.9738 4.49792 97.2188 4.16647L98.2398 5.8173L102.934 0.125305L103.406 0.697788L98.1676 7.05004Z" fill="#768463"/>
<path d="M98.1676 26.4053C98.0056 25.8251 95.9738 23.8531 97.2188 23.5217L98.2398 25.1725L102.934 19.4805L103.406 20.053L98.1676 26.4053Z" fill="#768463"/>
<path d="M98.1676 46.0369C98.0056 45.4568 95.9738 43.4848 97.2188 43.1534L98.2398 44.8042L102.934 39.1122L103.406 39.6847L98.1676 46.0369Z" fill="#768463"/>
<path d="M93.845 30.1652C94.645 30.1652 95.2936 29.3788 95.2936 28.4087C95.2936 27.4387 94.645 26.6523 93.845 26.6523C93.045 26.6523 92.3965 27.4387 92.3965 28.4087C92.3965 29.3788 93.045 30.1652 93.845 30.1652Z" fill="#3F3D56"/>
<path d="M93.845 11.0198C94.645 11.0198 95.2936 10.2334 95.2936 9.2633C95.2936 8.29323 94.645 7.50684 93.845 7.50684C93.045 7.50684 92.3965 8.29323 92.3965 9.2633C92.3965 10.2334 93.045 11.0198 93.845 11.0198Z" fill="#3F3D56"/>
<path d="M131 5.22339H107.678V5.57468H131V5.22339Z" fill="#3F3D56"/>
<path d="M94.5694 50.5743C95.3694 50.5743 96.0179 49.7879 96.0179 48.8178C96.0179 47.8477 95.3694 47.0613 94.5694 47.0613C93.7694 47.0613 93.1208 47.8477 93.1208 48.8178C93.1208 49.7879 93.7694 50.5743 94.5694 50.5743Z" fill="#3F3D56"/>
<path d="M131 24.5786H107.678V24.9298H131V24.5786Z" fill="#3F3D56"/>
<path d="M131 44.2102H107.678V44.5615H131V44.2102Z" fill="#3F3D56"/>
<path d="M101.826 48.654H94.5835V39.696H99.5085V40.0473H94.8732V48.3027H101.536V44.2629H101.826V48.654Z" fill="#3F3D56"/>
<path d="M101.826 28.9816H94.5835V20.0237H99.5085V20.375H94.8732V28.6304H101.536V24.5905H101.826V28.9816Z" fill="#3F3D56"/>
<path d="M101.826 8.95796H94.5835V0H99.5085V0.351293H94.8732V8.60667H101.536V4.56681H101.826V8.95796Z" fill="#3F3D56"/>
<path d="M54.538 31.9275C54.538 31.9275 52.6023 41.8377 54.9681 41.8377C57.3339 41.8377 62.9259 30.6236 62.9259 30.6236L60.9902 27.7548L57.5159 33.6038L57.3339 30.6236L54.538 31.9275Z" fill="#A0616A"/>
<path d="M62.4102 31.0544C63.4502 31.0544 64.2933 30.032 64.2933 28.771C64.2933 27.5099 63.4502 26.4875 62.4102 26.4875C61.3702 26.4875 60.5271 27.5099 60.5271 28.771C60.5271 30.032 61.3702 31.0544 62.4102 31.0544Z" fill="#A0616A"/>
<path d="M52.8968 99.4242L55.4032 99.4241L56.5958 87.7004L52.8962 87.7006L52.8968 99.4242Z" fill="#A0616A"/>
<path d="M52.8085 102.595L60.5165 102.595V102.476C60.5165 101.512 60.2004 100.586 59.6377 99.904C59.0751 99.2218 58.312 98.8385 57.5163 98.8384H57.5162L56.1082 97.5432L53.4812 98.8386L52.8083 98.8387L52.8085 102.595Z" fill="#2D343C"/>
<path d="M25.9343 95.6322L28.1771 96.9893L33.5616 87.1452L30.2514 85.1421L25.9343 95.6322Z" fill="#A0616A"/>
<path d="M24.6875 98.4214L31.5844 102.595L31.628 102.489C31.9832 101.626 32.0412 100.627 31.789 99.7117C31.5368 98.7967 30.9952 98.0405 30.2833 97.6096L30.2831 97.6095L29.5004 95.6882L26.6728 95.4248L26.0707 95.0604L24.6875 98.4214Z" fill="#2D343C"/>
<path d="M82.5448 102.606H0V103H82.5448V102.606Z" fill="#CCCCCC"/>
<path d="M36.6913 49.906C36.6913 49.906 35.6896 64.5107 35.4745 67.6403C35.327 69.602 34.9654 71.5314 34.3991 73.3777C34.3991 73.3777 33.969 74.4209 33.969 75.4641L29.0939 86.2073C29.0939 86.2073 27.6042 87.5351 27.8193 88.5783C28.0344 89.6214 26.9211 90.2472 26.9211 90.2472L32.055 91.447C32.055 91.447 31.8399 90.6646 32.4851 90.4038C33.1304 90.143 33.644 87.881 33.644 87.881L40.8513 73.6385L46.0131 60.5988C46.0131 60.5988 49.0241 72.3346 49.6694 73.6385C49.6694 73.6385 52.0352 88.243 52.4653 89.547C52.8955 90.851 53.1105 90.851 52.8955 91.3726C52.6804 91.8941 52.6804 92.4157 52.8955 92.6765C53.1105 92.9373 57.197 92.6765 57.197 92.6765L56.1216 74.1601L54.1859 51.9926L44.2925 48.3415L36.6913 49.906Z" fill="#2D343C"/>
<path d="M46.3774 15.0409C48.8718 15.0409 50.894 12.5889 50.894 9.5642C50.894 6.53952 48.8718 4.08752 46.3774 4.08752C43.883 4.08752 41.8608 6.53952 41.8608 9.5642C41.8608 12.5889 43.883 15.0409 46.3774 15.0409Z" fill="#A0616A"/>
<path d="M54.6161 23.0445L49.2394 19.0944C49.2394 19.0944 49.0903 16.6416 47.5584 16.5262C46.7893 16.4682 45.6351 16.3796 43.9031 16.2442C43.537 16.2156 43.29 18.6439 42.8705 18.611L37.1951 20.4365L38.0554 38.1705C38.0554 38.1705 36.7649 45.212 37.1951 46.516C37.6252 47.8199 36.1197 48.3415 36.5498 48.6023C36.98 48.8631 36.5498 50.6887 36.5498 50.6887C36.5498 50.6887 44.9377 55.9045 54.1859 51.9926L53.3256 48.6023C53.4427 48.1591 53.4646 47.687 53.3894 47.2307C53.3141 46.7744 53.1441 46.3489 52.8955 45.9944C52.8955 45.9944 53.7557 44.4296 52.6804 43.1256C52.6804 43.1256 53.1105 40.7785 52.0352 39.7353L51.8201 36.0842L52.4653 34.2586L54.6161 23.0445Z" fill="#E6E6E6"/>
<path d="M42.458 12.6929L42.3318 12.3373C42.3155 12.2913 40.7182 7.71268 42.134 4.88845C42.7894 3.58096 43.9811 2.84278 45.6759 2.69458C48.3278 2.46207 50.1428 3.22486 51.0719 4.96015C51.2276 5.25424 51.3152 5.5938 51.3253 5.94313C51.3355 6.29245 51.2678 6.63863 51.1294 6.94527C50.9911 7.2519 50.7871 7.50768 50.539 7.68568C50.291 7.86369 50.0079 7.95736 49.7197 7.95685H49.684L49.1968 7.18968L49.1684 7.2643C48.992 7.72709 48.5869 7.98043 48.1123 7.92494C48.0316 7.91792 47.9601 8.00239 47.9027 8.18318C47.8834 8.26227 47.8468 8.33359 47.797 8.38965C47.7471 8.44572 47.6856 8.48446 47.6191 8.50181C47.2685 8.58457 46.7688 8.04905 46.545 7.78215C46.5364 7.84358 46.517 7.90205 46.4881 7.9536C46.4593 8.00515 46.4216 8.04858 46.3777 8.08096C46.142 8.24589 45.7751 8.03044 45.6698 7.96183C44.8308 8.17796 44.2878 8.12015 44.0552 7.79022C43.8974 9.14333 43.5589 11.5789 43.153 11.7139C43.1106 11.7257 43.0661 11.7207 43.0263 11.6995C42.9864 11.6784 42.9531 11.6423 42.9315 11.5965C42.8337 11.4426 42.7464 11.3659 42.6919 11.3874C42.5598 11.4384 42.4819 11.9657 42.4707 12.306L42.458 12.6929Z" fill="#2F2E41"/>
<path d="M52.2501 23.3052L54.3956 22.8826C55.9411 24.6832 56.9939 27.0153 57.4119 29.5643C58.0571 33.737 58.2722 34.5194 58.2722 34.5194L53.1104 36.0841L50.3145 29.5643L52.2501 23.3052Z" fill="#E6E6E6"/>
<path d="M42.7299 28.7327L41.4041 49.1136L75.2397 52.3501L76.5655 31.9691L42.7299 28.7327Z" fill="white"/>
<path d="M46.3449 30.3117C45.5169 29.5947 44.4656 29.5429 44.064 29.5532C44.1865 30.0169 44.5672 31.2063 45.3953 31.9236C46.2253 32.6424 47.2753 32.6927 47.6763 32.6827C47.5538 32.2191 47.173 31.0292 46.3449 30.3117Z" fill="#768463"/>
<path d="M49.6114 43.2805L44.1784 42.7608C44.0178 42.7455 43.8564 42.7686 43.7032 42.8289C43.5501 42.8892 43.4082 42.9855 43.2857 43.1123C43.1633 43.2391 43.0626 43.3939 42.9895 43.5678C42.9163 43.7418 42.8722 43.9315 42.8595 44.1262C42.8468 44.3209 42.8659 44.5166 42.9157 44.7023C42.9654 44.8881 43.0448 45.0601 43.1494 45.2086C43.2539 45.3571 43.3816 45.4792 43.5251 45.5678C43.6685 45.6565 43.825 45.7101 43.9855 45.7254V45.7254L49.4185 46.2451C49.7427 46.2761 50.0638 46.1497 50.3112 45.8936C50.5585 45.6376 50.7118 45.2729 50.7374 44.8797C50.763 44.4866 50.6587 44.0973 50.4475 43.7973C50.2364 43.4974 49.9356 43.3115 49.6114 43.2805V43.2805Z" fill="#768463"/>
<path d="M75.2316 29.9881L44.7704 27.0741C44.4161 27.0403 44.0597 27.0914 43.7217 27.2245C43.3837 27.3577 43.0707 27.5703 42.8004 27.8502C42.5301 28.13 42.308 28.4717 42.1467 28.8557C41.9853 29.2397 41.8879 29.6584 41.86 30.088L40.6885 48.0831C40.6322 48.951 40.8625 49.8105 41.3286 50.4726C41.7948 51.1347 42.4587 51.5452 43.1744 51.6139L73.6357 54.5279C73.99 54.5617 74.3463 54.5106 74.6843 54.3774C75.0224 54.2443 75.3354 54.0317 75.6057 53.7518C75.8759 53.4719 76.0981 53.1302 76.2594 52.7463C76.4208 52.3623 76.5182 51.9435 76.5461 51.5139L77.6593 34.4103L77.6817 34.0609L77.7172 33.5171C77.7451 33.0875 77.7029 32.6554 77.5931 32.2455C77.4833 31.8357 77.308 31.4561 77.0772 31.1284C76.8464 30.8007 76.5646 30.5313 76.2479 30.3356C75.9313 30.14 75.5859 30.0219 75.2316 29.9881V29.9881ZM74.3321 45.6448L74.1391 48.6095C74.1038 49.1331 73.899 49.6185 73.5695 49.9595C73.2399 50.3005 72.8124 50.4694 72.3804 50.4293L68.3051 50.0399C67.8733 49.9972 67.473 49.7488 67.1918 49.3492C66.9106 48.9495 66.7713 48.4311 66.8043 47.9073L66.9974 44.9426C67.0328 44.4191 67.2377 43.9338 67.5672 43.5929C67.8967 43.2519 68.3242 43.0829 68.7561 43.1228L72.8299 43.5126C73.2617 43.5556 73.662 43.8039 73.9434 44.2033C74.2249 44.6027 74.3646 45.1209 74.3321 45.6448V45.6448ZM42.5899 44.0989C42.6215 43.6192 42.8087 43.1743 43.1106 42.8617C43.4124 42.5492 43.8041 42.3946 44.1998 42.4319L49.6326 42.9519C49.8289 42.9703 50.0202 43.0354 50.1957 43.1434C50.3712 43.2515 50.5274 43.4005 50.6554 43.5818C50.7834 43.7631 50.8807 43.9733 50.9417 44.2002C51.0027 44.4271 51.0262 44.6664 51.0109 44.9044C50.9956 45.1423 50.9418 45.3743 50.8525 45.587C50.7632 45.7998 50.6402 45.9891 50.4906 46.1441C50.3409 46.2992 50.1676 46.417 49.9804 46.4907C49.7932 46.5645 49.5958 46.5928 49.3996 46.5741L49.3968 46.575L43.964 46.0549C43.7677 46.0361 43.5765 45.9706 43.4012 45.8621C43.2259 45.7535 43.07 45.6042 42.9424 45.4225C42.8147 45.2408 42.7179 45.0304 42.6574 44.8033C42.5969 44.5762 42.574 44.3368 42.5899 44.0989V44.0989ZM43.7529 29.4357L43.7158 29.2514L43.8721 29.234C43.9332 29.226 45.3784 29.0687 46.5033 30.0431C47.6283 31.0175 47.9733 32.7272 47.9882 32.7987L48.024 32.9834L47.8681 33.0024C47.6467 33.0224 47.4244 33.0206 47.2033 32.9971C46.5 32.9472 45.8207 32.669 45.2364 32.1916C44.1115 31.2172 43.7665 29.5076 43.7529 29.4357V29.4357Z" fill="#768463"/>
<path d="M69.7619 47.611L67.9962 47.4421C67.8702 47.4303 67.7456 47.4796 67.6496 47.5792C67.5536 47.6788 67.4941 47.8204 67.4841 47.9731C67.4742 48.1258 67.5146 48.2771 67.5966 48.3937C67.6785 48.5103 67.7953 48.5827 67.9212 48.595L69.6869 48.7639C69.8129 48.7757 69.9375 48.7263 70.0335 48.6268C70.1295 48.5272 70.189 48.3855 70.199 48.2328C70.2089 48.0801 70.1685 47.9289 70.0865 47.8123C70.0046 47.6957 69.8878 47.6233 69.7619 47.611V47.611Z" fill="#768463"/>
<path d="M73.0219 47.9228L71.2561 47.7539C71.1302 47.7422 71.0056 47.7916 70.9097 47.8911C70.8138 47.9907 70.7543 48.1323 70.7444 48.285C70.7345 48.4376 70.7749 48.5888 70.8567 48.7054C70.9386 48.8219 71.0553 48.8944 71.1811 48.9068L72.9469 49.0757C73.0728 49.0873 73.1973 49.038 73.2932 48.9384C73.3892 48.8388 73.4486 48.6972 73.4586 48.5446C73.4685 48.3919 73.4281 48.2408 73.3462 48.1242C73.2644 48.0076 73.1477 47.9352 73.0219 47.9228V47.9228Z" fill="#768463"/>
<path d="M69.8583 46.1287L68.0926 45.9598C67.9666 45.9481 67.8421 45.9975 67.7461 46.0971C67.6502 46.1966 67.5908 46.3383 67.5808 46.4909C67.5709 46.6435 67.6113 46.7947 67.6932 46.9113C67.775 47.0279 67.8917 47.1003 68.0175 47.1127L69.7833 47.2816C69.9092 47.2934 70.0339 47.2441 70.1299 47.1445C70.2259 47.0449 70.2854 46.9033 70.2953 46.7505C70.3053 46.5978 70.2648 46.4466 70.1829 46.33C70.1009 46.2134 69.9842 46.141 69.8583 46.1287V46.1287Z" fill="#768463"/>
<path d="M73.1181 46.4405L71.3524 46.2716C71.2264 46.2598 71.1018 46.3091 71.0058 46.4087C70.9098 46.5083 70.8503 46.65 70.8403 46.8027C70.8304 46.9554 70.8708 47.1066 70.9528 47.2232C71.0347 47.3398 71.1515 47.4122 71.2774 47.4245L73.0431 47.5934C73.1691 47.6052 73.2937 47.5559 73.3897 47.4563C73.4857 47.3567 73.5452 47.2151 73.5552 47.0623C73.5651 46.9096 73.5247 46.7584 73.4427 46.6418C73.3608 46.5252 73.244 46.4528 73.1181 46.4405V46.4405Z" fill="#768463"/>
<path d="M69.9548 44.6464L68.1891 44.4775C68.0631 44.4657 67.9385 44.515 67.8425 44.6146C67.7464 44.7141 67.6869 44.8558 67.677 45.0085C67.6671 45.1612 67.7075 45.3125 67.7895 45.4291C67.8714 45.5457 67.9882 45.6181 68.1141 45.6304L69.8798 45.7993C70.0057 45.8109 70.1303 45.7616 70.2262 45.662C70.3221 45.5625 70.3816 45.4208 70.3915 45.2682C70.4014 45.1155 70.3611 44.9644 70.2792 44.8478C70.1973 44.7312 70.0807 44.6588 69.9548 44.6464V44.6464Z" fill="#768463"/>
<path d="M73.2147 44.9582L71.449 44.7893C71.3231 44.7776 71.1985 44.827 71.1026 44.9265C71.0067 45.0261 70.9472 45.1677 70.9373 45.3204C70.9273 45.473 70.9677 45.6242 71.0496 45.7408C71.1315 45.8573 71.2481 45.9298 71.374 45.9422L73.1397 46.1111C73.2656 46.1227 73.3902 46.0734 73.4861 45.9738C73.5821 45.8743 73.6415 45.7326 73.6514 45.58C73.6614 45.4273 73.621 45.2762 73.5391 45.1596C73.4572 45.043 73.3406 44.9706 73.2147 44.9582V44.9582Z" fill="#768463"/>
<path d="M41.4072 35.766L41.3845 36.1163L77.142 39.5224L77.1647 39.172L41.4072 35.766Z" fill="white"/>
<path d="M77.6818 34.0608L77.6593 34.4104L76.4149 34.292L63.156 33.0291L63.1799 32.6792L76.4373 33.9424L77.6818 34.0608Z" fill="#3F3D56"/>
<path d="M33.9689 30.3467C33.9689 30.3467 32.0332 40.2569 34.399 40.2569C36.7648 40.2569 42.3568 29.0427 42.3568 29.0427L40.4211 26.174L36.9468 32.023L36.7648 29.0427L33.9689 30.3467Z" fill="#A0616A"/>
<path d="M41.8409 29.4735C42.8809 29.4735 43.724 28.4512 43.724 27.1901C43.724 25.9291 42.8809 24.9067 41.8409 24.9067C40.8009 24.9067 39.9578 25.9291 39.9578 27.1901C39.9578 28.4512 40.8009 29.4735 41.8409 29.4735Z" fill="#A0616A"/>
<path d="M38.7616 22.0013L37.4712 20.4365C37.4712 20.4365 34.8903 22.2621 34.6752 24.0876C34.4601 25.9132 33.3848 31.6507 33.3848 31.6507L37.3636 32.0419L38.6541 29.6947L38.7616 22.0013Z" fill="#E6E6E6"/>
</g>
<defs>
<clipPath id="clip0_1602_1140">
<rect width="131" height="103" fill="white"/>
</clipPath>
</defs>
</svg>
