<svg width="131" height="103" viewBox="0 0 131 103" fill="none" xmlns="http://www.w3.org/2000/svg">
<g opacity="0.6" clip-path="url(#clip0_1602_1094)">
<path d="M118.926 0.0673218H0.0507812V76.1026H118.926V0.0673218Z" fill="#E6E6E6"/>
<path d="M115.527 9.604H3.4502V71.6043H115.527V9.604Z" fill="white"/>
<path d="M118.875 0H0V5.04377H118.875V0Z" fill="#768463"/>
<path d="M3.75292 3.51345C4.26987 3.51345 4.68895 3.09491 4.68895 2.57862C4.68895 2.06233 4.26987 1.6438 3.75292 1.6438C3.23597 1.6438 2.81689 2.06233 2.81689 2.57862C2.81689 3.09491 3.23597 3.51345 3.75292 3.51345Z" fill="white"/>
<path d="M7.30565 3.51345C7.82261 3.51345 8.24168 3.09491 8.24168 2.57862C8.24168 2.06233 7.82261 1.6438 7.30565 1.6438C6.7887 1.6438 6.36963 2.06233 6.36963 2.57862C6.36963 3.09491 6.7887 3.51345 7.30565 3.51345Z" fill="white"/>
<path d="M10.8589 3.51345C11.3758 3.51345 11.7949 3.09491 11.7949 2.57862C11.7949 2.06233 11.3758 1.6438 10.8589 1.6438C10.3419 1.6438 9.92285 2.06233 9.92285 2.57862C9.92285 3.09491 10.3419 3.51345 10.8589 3.51345Z" fill="white"/>
<path d="M42.4323 16.037H13.6338V65.1713H42.4323V16.037Z" fill="#E6E6E6"/>
<path d="M71.402 16.037H47.4033V29.5618H71.402V16.037Z" fill="#768463"/>
<path d="M71.402 33.3282H47.4033V47.8801H71.402V33.3282Z" fill="#E6E6E6"/>
<path d="M71.402 51.6465H47.4033V65.1713H71.402V51.6465Z" fill="#E6E6E6"/>
<path d="M105.343 16.037H76.5444V37.4495H105.343V16.037Z" fill="#E6E6E6"/>
<path d="M105.343 43.7589H76.5444V65.1713H105.343V43.7589Z" fill="#E6E6E6"/>
<path d="M94.249 38.9878V34.378C94.249 32.7397 94.9007 31.1685 96.0606 30.0101C97.2205 28.8517 98.7937 28.2009 100.434 28.2009C102.074 28.2009 103.648 28.8517 104.808 30.0101C105.968 31.1685 106.619 32.7397 106.619 34.378V38.9878C106.619 39.2078 106.531 39.4187 106.376 39.5742C106.22 39.7298 106.009 39.8173 105.788 39.8175H95.0799C94.8596 39.8173 94.6484 39.7298 94.4926 39.5742C94.3369 39.4187 94.2493 39.2078 94.249 38.9878Z" fill="#2D343C"/>
<path d="M109.58 98.9788L107.398 99.5818L104.031 91.4653L107.251 90.5754L109.58 98.9788Z" fill="#96646B"/>
<path d="M105.668 99.39L109.875 98.2272L110.608 100.873L103.752 102.768C103.655 102.42 103.629 102.057 103.673 101.7C103.717 101.342 103.831 100.996 104.009 100.683C104.187 100.369 104.425 100.093 104.71 99.8716C104.994 99.6498 105.32 99.4862 105.668 99.39Z" fill="#2D343C"/>
<path d="M86.8361 100.655H84.5725L83.4956 91.9352H86.8365L86.8361 100.655Z" fill="#96646B"/>
<path d="M82.9556 100.009H87.3209V102.754H80.207C80.207 102.393 80.2781 102.036 80.4162 101.703C80.5544 101.37 80.7568 101.068 81.0121 100.813C81.2673 100.558 81.5703 100.356 81.9037 100.218C82.2372 100.08 82.5946 100.009 82.9556 100.009Z" fill="#2D343C"/>
<path d="M84.1064 51.9243C84.2679 52.1421 84.4754 52.3219 84.714 52.451C84.9527 52.5801 85.2168 52.6554 85.4877 52.6715C85.7587 52.6876 86.0299 52.6442 86.2822 52.5443C86.5345 52.4445 86.7618 52.2906 86.9482 52.0935L92.9653 54.7963L92.4179 51.4161L86.7879 49.3677C86.4356 49.077 85.9888 48.9255 85.5321 48.9419C85.0755 48.9582 84.6407 49.1413 84.3101 49.4565C83.9796 49.7716 83.7763 50.1969 83.7387 50.6517C83.7012 51.1066 83.832 51.5594 84.1064 51.9243H84.1064Z" fill="#96646B"/>
<path d="M96.6087 72.2513C94.7182 72.2513 92.7612 71.97 91.1162 71.1336C90.243 70.6983 89.4691 70.0877 88.8429 69.34C88.2168 68.5923 87.7519 67.7237 87.4774 66.7883C86.6203 64.0779 87.701 61.4151 88.746 58.8401C89.3936 57.2444 90.0053 55.7373 90.164 54.2517L90.2195 53.7243C90.4667 51.3553 90.6801 49.3094 91.8621 48.542C92.4748 48.1442 93.2985 48.1215 94.3806 48.4725L104.543 51.7697L104.17 71.0368L104.108 71.0574C104.055 71.0752 100.472 72.2513 96.6087 72.2513Z" fill="#2F2E41"/>
<path d="M94.2028 42.4743C94.2028 42.4743 99.1878 40.9992 103.065 41.5523C103.065 41.5523 100.849 53.7222 101.588 57.7788C102.326 61.8354 88.7563 59.3461 91.5257 55.4739L92.4488 50.8641C92.4488 50.8641 90.6026 49.0202 92.2642 46.8075L94.2028 42.4743Z" fill="#768463"/>
<path d="M91.7507 71.886L85.6069 70.7356L87.7519 54.2497C87.8961 53.7895 91.2189 43.3442 92.7279 42.7791C93.8236 42.3937 94.9442 42.0828 96.0819 41.8485L96.3005 41.8048L95.0686 43.6503L90.164 55.3877L91.7507 71.886Z" fill="#2D343C"/>
<path d="M88.5494 98.6345L80.6113 97.3132L85.0661 79.1462L91.6948 54.3018L91.7603 54.743C91.7654 54.7759 92.3847 58.0214 101.573 56.5813L101.654 56.5687L101.677 56.6473L112.782 95.8375L103.737 97.343L95.4875 68.75L88.5494 98.6345Z" fill="#2D343C"/>
<path d="M99.5522 74.9711L99.5572 74.8316C99.5627 74.6768 100.109 59.2741 99.9265 53.0795C99.7434 46.8638 101.758 41.4811 101.779 41.4274L101.795 41.3842L101.84 41.3714C104.447 40.6276 106.708 42.8475 106.731 42.87L106.762 42.9017L106.02 49.0192L109.199 71.2645L99.5522 74.9711Z" fill="#2D343C"/>
<path d="M99.1631 39.7102C101.668 39.7102 103.698 37.6826 103.698 35.1814C103.698 32.6802 101.668 30.6525 99.1631 30.6525C96.6587 30.6525 94.6284 32.6802 94.6284 35.1814C94.6284 37.6826 96.6587 39.7102 99.1631 39.7102Z" fill="#96646B"/>
<path d="M92.7856 34.7467C92.7871 33.4512 93.3031 32.2092 94.2203 31.2932C95.1375 30.3771 96.3811 29.8618 97.6783 29.8604H98.6015C99.8986 29.8618 101.142 30.3771 102.059 31.2932C102.977 32.2092 103.493 33.4512 103.494 34.7467V34.8389H101.543L100.878 32.9781L100.745 34.8389H99.7365L99.4008 33.9L99.3336 34.8389H92.7856V34.7467Z" fill="#2D343C"/>
<path d="M98.7167 40.3359C98.6251 40.212 98.5704 40.0649 98.5589 39.9113C98.5474 39.7578 98.5796 39.6041 98.6517 39.468C99.6299 37.6097 101 34.1759 99.1816 32.0583L99.0509 31.9061H104.329V39.8202L99.5343 40.6651C99.4857 40.6737 99.4365 40.678 99.3872 40.678C99.2563 40.678 99.1273 40.647 99.0107 40.5876C98.8942 40.5281 98.7934 40.4418 98.7167 40.3359Z" fill="#2D343C"/>
<path d="M77.4663 7.66081C73.773 4.54834 69.2535 2.57508 64.4577 1.98113C59.662 1.38719 54.7968 2.19818 50.4541 4.31541C46.1114 6.43263 42.4786 9.76482 39.9976 13.9065C37.5166 18.0482 36.2944 22.8207 36.4798 27.6435C36.6652 32.4662 38.2501 37.1311 41.0417 41.0707C43.8334 45.0102 47.7114 48.0544 52.2038 49.8329C56.6962 51.6114 61.6093 52.0474 66.3454 51.088C71.0814 50.1286 75.4361 47.8151 78.8797 44.429L109.457 70.1973C109.923 70.5902 110.525 70.7823 111.132 70.7316C111.739 70.6808 112.302 70.3912 112.695 69.9266C113.088 69.4619 113.281 68.8602 113.23 68.2539C113.179 67.6475 112.889 67.0862 112.424 66.6934L112.42 66.6905L81.8425 40.9222C85.3947 35.8306 86.915 29.5977 86.1055 23.4449C85.296 17.2922 82.215 11.6631 77.4663 7.66081ZM75.4951 38.4409C73.1129 41.2604 69.9471 43.3111 66.398 44.3337C62.8488 45.3563 59.0758 45.3048 55.5559 44.1858C52.0361 43.0668 48.9275 40.9305 46.6234 38.0471C44.3192 35.1636 42.9229 31.6625 42.6111 27.9866C42.2993 24.3106 43.0859 20.6248 44.8715 17.3954C46.6571 14.1659 49.3615 11.5377 52.6427 9.84328C55.9239 8.14882 59.6345 7.46416 63.3053 7.87586C66.9761 8.28757 70.4422 9.77715 73.2654 12.1562H73.2654C75.1399 13.7359 76.6845 15.6688 77.811 17.8447C78.9375 20.0205 79.6239 22.3966 79.831 24.8374C80.038 27.2781 79.7617 29.7357 79.0177 32.0698C78.2738 34.4039 77.0768 36.5688 75.4951 38.4409Z" fill="#444E59"/>
<path opacity="0.3" d="M49.1768 40.6677C45.5939 37.648 43.279 33.3931 42.6919 28.7478C42.1048 24.1025 43.2883 19.4066 46.0075 15.5925C45.6504 15.9516 45.3052 16.3278 44.9719 16.7209C43.3902 18.593 42.1932 20.7579 41.4493 23.092C40.7053 25.4261 40.429 27.8837 40.636 30.3244C40.843 32.7652 41.5294 35.1413 42.6559 37.3171C43.7825 39.493 45.3271 41.4259 47.2016 43.0056C49.0761 44.5852 51.2437 45.7807 53.5808 46.5237C55.9179 47.2667 58.3787 47.5427 60.8226 47.3359C63.2664 47.1291 65.6456 46.4436 67.8243 45.3185C70.0029 44.1935 71.9383 42.6508 73.52 40.7788C73.8526 40.3851 74.1657 39.982 74.4596 39.5693C71.1524 42.888 66.7166 44.8432 62.0328 45.0466C57.3491 45.2501 52.76 43.687 49.1768 40.6677Z" fill="black"/>
<path d="M100.619 59.8417C100.882 59.9061 101.157 59.9119 101.423 59.8589C101.689 59.8058 101.941 59.6951 102.159 59.5345C102.378 59.374 102.559 59.1675 102.689 58.9296C102.819 58.6917 102.895 58.4283 102.913 58.1577L109.27 56.3954L106.686 54.1452L101.045 56.1637C100.588 56.1651 100.147 56.3338 99.8064 56.6379C99.4657 56.942 99.2485 57.3603 99.196 57.8137C99.1434 58.2671 99.2593 58.7239 99.5215 59.0977C99.7837 59.4715 100.174 59.7362 100.619 59.8417Z" fill="#96646B"/>
<path d="M103.261 58.9089L102.875 55.2384L108.185 52.3122L104.723 48.1265L105.288 43.4246L106.694 42.8224L106.738 42.8786C107.402 43.7305 113.22 51.228 113.22 52.1548C113.22 53.1068 112.107 55.9023 110.584 56.6627C109.115 57.3962 103.599 58.8218 103.365 58.8822L103.261 58.9089Z" fill="#2D343C"/>
<path d="M130.815 103H60.4717C60.4228 103 60.3758 102.981 60.3412 102.946C60.3066 102.911 60.2871 102.865 60.2871 102.816C60.2871 102.767 60.3066 102.72 60.3412 102.685C60.3758 102.651 60.4228 102.631 60.4717 102.631H130.815C130.864 102.631 130.911 102.651 130.946 102.685C130.98 102.72 131 102.767 131 102.816C131 102.865 130.98 102.911 130.946 102.946C130.911 102.981 130.864 103 130.815 103Z" fill="#CCCCCC"/>
</g>
<defs>
<clipPath id="clip0_1602_1094">
<rect width="131" height="103" fill="white"/>
</clipPath>
</defs>
</svg>
