<svg width="131" height="87" viewBox="0 0 131 87" fill="none" xmlns="http://www.w3.org/2000/svg">
<g clip-path="url(#clip0_1602_950)">
<path d="M131 72.4967C131 72.5182 130.994 72.5395 130.983 72.5594C130.971 72.5793 130.954 72.5974 130.933 72.6127C130.911 72.6279 130.886 72.6399 130.858 72.6482C130.83 72.6564 130.8 72.6606 130.769 72.6605H0.23072C0.169529 72.6605 0.110844 72.6432 0.0675757 72.6125C0.0243075 72.5818 0 72.5401 0 72.4967C0 72.4532 0.0243075 72.4115 0.0675757 72.3808C0.110844 72.3501 0.169529 72.3328 0.23072 72.3328H130.769C130.8 72.3328 130.83 72.337 130.858 72.3452C130.886 72.3534 130.911 72.3655 130.933 72.3807C130.954 72.3959 130.971 72.414 130.983 72.4339C130.994 72.4538 131 72.4751 131 72.4967V72.4967Z" fill="#CCCCCC"/>
<path d="M54.0928 65.5124C77.1145 65.5124 95.7773 52.2604 95.7773 35.9134C95.7773 19.5663 77.1145 6.31435 54.0928 6.31435C31.071 6.31435 12.4082 19.5663 12.4082 35.9134C12.4082 52.2604 31.071 65.5124 54.0928 65.5124Z" fill="#E6E6E6"/>
<path d="M89.9608 35.9134C89.965 39.8874 88.6576 43.8069 86.1435 47.3575C83.6294 50.908 79.9785 53.9909 75.4837 56.3587C75.1831 56.5184 74.8768 56.674 74.5685 56.8254C68.5579 59.7922 61.4129 61.3823 54.0927 61.3823C46.7725 61.3823 39.6275 59.7922 33.6169 56.8254C33.3086 56.674 33.0023 56.5184 32.7017 56.3587C28.21 53.9888 24.5614 50.9055 22.0476 47.3555C19.5338 43.8054 18.2246 39.8869 18.2246 35.9134C18.2246 31.9398 19.5338 28.0213 22.0476 24.4713C24.5614 20.9212 28.21 17.8379 32.7017 15.468C33.0023 15.3083 33.3086 15.1528 33.6169 15.0013C39.6275 12.0346 46.7725 10.4444 54.0927 10.4444C61.4129 10.4444 68.5579 12.0346 74.5685 15.0013C74.8768 15.1528 75.1831 15.3083 75.4837 15.468C79.9785 17.8358 83.6294 20.9187 86.1435 24.4692C88.6576 28.0198 89.965 31.9393 89.9608 35.9134V35.9134Z" fill="white"/>
<path d="M54.0927 59.1795C72.1888 59.1795 86.8587 48.7629 86.8587 35.9134C86.8587 23.0638 72.1888 12.6472 54.0927 12.6472C35.9965 12.6472 21.3267 23.0638 21.3267 35.9134C21.3267 48.7629 35.9965 59.1795 54.0927 59.1795Z" fill="#768463"/>
<path opacity="0.2" d="M54.1778 12.7122C53.6811 12.7122 53.1874 12.7214 52.6961 12.737C60.9775 13.2537 68.6727 15.9864 74.2226 20.3814C79.7724 24.7764 82.762 30.5051 82.5856 36.4068C82.4092 42.3085 79.08 47.942 73.2725 52.1658C67.465 56.3897 59.6134 58.888 51.3086 59.1548C52.2543 59.2131 53.2108 59.2446 54.1778 59.2446C62.8679 59.2446 71.202 56.7933 77.3468 52.4301C83.4917 48.0668 86.9438 42.149 86.9438 35.9784C86.9438 29.8078 83.4917 23.89 77.3468 19.5267C71.202 15.1635 62.8679 12.7122 54.1778 12.7122Z" fill="black"/>
<path d="M54.1894 10.9951C53.9067 10.9955 53.6358 11.0754 53.4359 11.2173C53.236 11.3592 53.1235 11.5516 53.123 11.7523V15.0564C53.123 15.2572 53.2354 15.4498 53.4354 15.5918C53.6354 15.7338 53.9066 15.8136 54.1894 15.8136C54.4722 15.8136 54.7434 15.7338 54.9434 15.5918C55.1434 15.4498 55.2557 15.2572 55.2557 15.0564V11.7523C55.2552 11.5516 55.1427 11.3592 54.9429 11.2173C54.743 11.0754 54.4721 10.9955 54.1894 10.9951V10.9951Z" fill="white"/>
<path d="M75.4834 15.468C75.1828 15.3083 74.8765 15.1527 74.5682 15.0013C74.3833 14.9928 74.1983 15.0186 74.0317 15.0763C73.8651 15.134 73.7226 15.2216 73.6182 15.3303L70.9989 18.0603C70.8397 18.2263 70.7799 18.4303 70.8327 18.6276C70.8854 18.8248 71.0463 18.9991 71.28 19.1121C71.5137 19.2251 71.8011 19.2676 72.0789 19.2302C72.3567 19.1927 72.6021 19.0785 72.7613 18.9125L75.3806 16.1825C75.4803 16.0789 75.5419 15.9593 75.5598 15.8345C75.5778 15.7097 75.5515 15.5837 75.4834 15.468V15.468Z" fill="white"/>
<path d="M87.3841 27.9161C87.3315 27.8241 87.2538 27.7403 87.1555 27.6696C87.0572 27.5989 86.9403 27.5426 86.8114 27.504C86.6825 27.4654 86.5441 27.4452 86.4042 27.4446C86.2643 27.4439 86.1255 27.4629 85.9959 27.5004L81.684 28.7435C81.4223 28.8192 81.2136 28.9656 81.1038 29.1505C80.994 29.3354 80.9921 29.5437 81.0984 29.7297C81.2048 29.9156 81.4108 30.0639 81.6711 30.142C81.9314 30.2202 82.2248 30.2217 82.4867 30.1464L86.7986 28.9032C87.0602 28.8271 87.2687 28.6805 87.3785 28.4955C87.4882 28.3105 87.4903 28.1022 87.3841 27.9161Z" fill="white"/>
<path d="M37.1861 18.0603L34.5667 15.3303C34.4623 15.2216 34.3198 15.134 34.1532 15.0763C33.9866 15.0186 33.8017 14.9928 33.6167 15.0013C33.3084 15.1527 33.0021 15.3083 32.7016 15.468C32.6335 15.5838 32.6072 15.7097 32.6251 15.8345C32.6431 15.9593 32.7047 16.0789 32.8043 16.1825L35.4237 18.9125C35.5828 19.0785 35.8283 19.1927 36.1061 19.2302C36.3839 19.2676 36.6712 19.2251 36.9049 19.1121C37.1386 18.9991 37.2995 18.8248 37.3523 18.6276C37.405 18.4303 37.3452 18.2263 37.1861 18.0603V18.0603Z" fill="white"/>
<path d="M26.501 28.7435L22.1891 27.5004C21.9271 27.4248 21.6336 27.4263 21.3731 27.5044C21.1126 27.5825 20.9065 27.7308 20.8001 27.9168C20.6937 28.1029 20.6956 28.3113 20.8056 28.4962C20.9155 28.6812 21.1245 28.8276 21.3864 28.9032L25.6983 30.1464C25.9603 30.2217 26.2536 30.2202 26.5139 30.142C26.7742 30.0639 26.9802 29.9156 27.0866 29.7296C27.193 29.5437 27.191 29.3354 27.0812 29.1505C26.9714 28.9656 26.7627 28.8192 26.501 28.7435V28.7435Z" fill="white"/>
<path d="M54.1894 56.0131C53.9067 56.0135 53.6358 56.0934 53.4359 56.2353C53.236 56.3772 53.1235 56.5696 53.123 56.7703V60.0744C53.123 60.2752 53.2354 60.4678 53.4354 60.6098C53.6354 60.7518 53.9066 60.8316 54.1894 60.8316C54.4722 60.8316 54.7434 60.7518 54.9434 60.6098C55.1434 60.4678 55.2557 60.2752 55.2557 60.0744V56.7703C55.2552 56.5696 55.1427 56.3772 54.9429 56.2353C54.743 56.0934 54.4721 56.0135 54.1894 56.0131V56.0131Z" fill="white"/>
<path d="M75.3806 55.6442L72.7613 52.9142C72.6825 52.832 72.5816 52.7617 72.4645 52.7072C72.3475 52.6527 72.2164 52.6151 72.0789 52.5965C71.9413 52.578 71.8 52.5789 71.6629 52.5991C71.5258 52.6194 71.3957 52.6586 71.28 52.7146C71.1643 52.7705 71.0652 52.8421 70.9885 52.9253C70.9117 53.0084 70.8588 53.1015 70.8327 53.1991C70.8066 53.2968 70.8078 53.3972 70.8363 53.4945C70.8648 53.5918 70.9201 53.6842 70.9989 53.7664L73.6182 56.4964C73.7226 56.6051 73.8651 56.6927 74.0317 56.7504C74.1983 56.8081 74.3833 56.834 74.5682 56.8254C74.8765 56.674 75.1828 56.5184 75.4834 56.3587C75.5515 56.243 75.5778 56.117 75.5598 55.9922C75.5419 55.8674 75.4803 55.7478 75.3806 55.6442Z" fill="white"/>
<path d="M86.7984 42.9235L82.4864 41.6803C82.2245 41.6048 81.931 41.6062 81.6705 41.6844C81.41 41.7625 81.2039 41.9108 81.0975 42.0968C80.991 42.2828 80.993 42.4913 81.103 42.6762C81.2129 42.8612 81.4218 43.0076 81.6838 43.0832L85.9957 44.3263C86.2576 44.4017 86.551 44.4002 86.8113 44.322C87.0716 44.2439 87.2776 44.0955 87.3839 43.9096C87.4903 43.7237 87.4884 43.5154 87.3786 43.3305C87.2688 43.1456 87.0601 42.9992 86.7984 42.9235V42.9235Z" fill="white"/>
<path d="M36.9049 52.7146C36.6712 52.6016 36.3839 52.5592 36.1061 52.5966C35.8283 52.6341 35.5829 52.7483 35.4237 52.9142L32.8043 55.6442C32.7047 55.7478 32.6431 55.8674 32.6251 55.9922C32.6072 56.117 32.6334 56.2429 32.7016 56.3587C33.0021 56.5184 33.3084 56.674 33.6167 56.8254C33.8017 56.834 33.9866 56.8081 34.1532 56.7504C34.3198 56.6927 34.4623 56.6051 34.5667 56.4964L37.1861 53.7664C37.2649 53.6842 37.3201 53.5918 37.3486 53.4945C37.3772 53.3972 37.3784 53.2968 37.3523 53.1991C37.3262 53.1015 37.2732 53.0084 37.1965 52.9252C37.1197 52.8421 37.0206 52.7705 36.9049 52.7146V52.7146Z" fill="white"/>
<path d="M27.0868 42.0961C27.0341 42.0041 26.9564 41.9203 26.8581 41.8496C26.7599 41.7788 26.6429 41.7226 26.514 41.684C26.3851 41.6454 26.2467 41.6252 26.1068 41.6245C25.9669 41.6239 25.8282 41.6429 25.6986 41.6803L21.3867 42.9235C21.1249 42.9992 20.9162 43.1456 20.8064 43.3305C20.6966 43.5154 20.6947 43.7237 20.8011 43.9096C20.9074 44.0956 21.1134 44.2439 21.3737 44.322C21.634 44.4002 21.9274 44.4017 22.1893 44.3263L26.5013 43.0832C26.7629 43.0071 26.9714 42.8605 27.0811 42.6755C27.1908 42.4905 27.1929 42.2822 27.0868 42.0961V42.0961Z" fill="white"/>
<path d="M55.5729 35.5376C55.6713 35.9515 55.5346 36.3762 55.1926 36.7186C54.8506 37.061 54.3313 37.2931 53.7487 37.3639L34.8262 39.6494C34.5375 39.6843 34.242 39.6784 33.9566 39.6322C33.6711 39.586 33.4012 39.5003 33.1624 39.38C32.9236 39.2597 32.7205 39.1072 32.5646 38.9312C32.4088 38.7552 32.3033 38.5591 32.2542 38.3541C32.2051 38.1491 32.2134 37.9393 32.2785 37.7366C32.3436 37.5339 32.4643 37.3423 32.6336 37.1727C32.803 37.0031 33.0178 36.8589 33.2657 36.7482C33.5136 36.6376 33.7898 36.5627 34.0784 36.5278L53.0009 34.2423C53.5838 34.1724 54.1819 34.2695 54.6641 34.5124C55.1462 34.7552 55.4731 35.1239 55.5729 35.5376V35.5376Z" fill="#5E6A4F"/>
<path d="M75.4885 50.424C75.2167 50.6181 74.8475 50.7278 74.462 50.7288C74.0765 50.7299 73.7061 50.6224 73.4321 50.4298L53.0623 36.0792C52.789 35.8863 52.6346 35.6242 52.6333 35.3505C52.632 35.0768 52.7837 34.814 53.0552 34.6197C53.3266 34.4254 53.6956 34.3156 54.081 34.3144C54.4664 34.3132 54.8368 34.4207 55.1106 34.6133L75.4804 48.9638C75.7538 49.1568 75.9082 49.419 75.9097 49.6927C75.9112 49.9665 75.7597 50.2295 75.4885 50.424V50.424Z" fill="#5E6A4F"/>
<path d="M54.0927 37.7031C55.4847 37.7031 56.6132 36.9018 56.6132 35.9134C56.6132 34.9249 55.4847 34.1236 54.0927 34.1236C52.7007 34.1236 51.5723 34.9249 51.5723 35.9134C51.5723 36.9018 52.7007 37.7031 54.0927 37.7031Z" fill="#CCCCCC"/>
<path d="M36.7314 4.87979C32.8625 9.19884 26.9595 12.0652 19.6795 13.9482C19.5357 14.0247 19.372 14.0803 19.1979 14.1119C19.0238 14.1435 18.8426 14.1504 18.6647 14.1323C18.4868 14.1141 18.3156 14.0713 18.161 14.0062C18.0064 13.9411 17.8714 13.855 17.7637 13.7529V13.7529C13.8093 10.0038 14.7022 4.6456 19.9212 1.78087C21.1829 1.08947 22.6255 0.582938 24.1652 0.290668C25.705 -0.00160139 27.3111 -0.0737854 28.8904 0.0783092C30.4697 0.230404 31.9908 0.603746 33.3652 1.17666C34.7397 1.74958 35.9402 2.51065 36.897 3.41571L37.0064 3.5194C37.1141 3.62155 37.1925 3.73776 37.237 3.86141C37.2815 3.98506 37.2912 4.11372 37.2657 4.24004C37.2401 4.36636 37.1798 4.48788 37.0881 4.59765C36.9965 4.70742 36.8752 4.80329 36.7314 4.87979V4.87979Z" fill="#E6E6E6"/>
<path d="M71.2878 3.4157C72.2447 2.51065 73.4451 1.74957 74.8196 1.17666C76.1941 0.603742 77.7151 0.230402 79.2944 0.0783079C80.8737 -0.0737867 82.4799 -0.00160481 84.0196 0.290665C85.5593 0.582935 87.0019 1.08947 88.2637 1.78086C93.4826 4.6456 94.3755 10.0038 90.4211 13.7529C90.3134 13.855 90.1784 13.9411 90.0238 14.0062C89.8692 14.0713 89.6981 14.1141 89.5202 14.1323C89.3423 14.1504 89.1611 14.1435 88.9869 14.1119C88.8128 14.0803 88.6491 14.0247 88.5053 13.9482C81.7471 12.1109 76.205 8.93154 71.4534 4.87979C71.1629 4.72528 70.9707 4.49515 70.9192 4.24003C70.8676 3.98491 70.9609 3.72569 71.1784 3.5194L71.2878 3.4157Z" fill="#E6E6E6"/>
<path d="M69.5923 61.5569C69.3459 61.6552 69.1644 61.8189 69.0876 62.012C69.0108 62.2052 69.0449 62.4121 69.1825 62.5874L75.3366 70.3964C75.4748 70.5716 75.7053 70.7006 75.9774 70.7552C76.2496 70.8097 76.5411 70.7853 76.7878 70.6872C77.0346 70.5892 77.2164 70.4255 77.2933 70.2323C77.3701 70.0391 77.3358 69.8321 77.1978 69.6569L71.0436 61.8479C70.9051 61.6729 70.6746 61.544 70.4026 61.4895C70.1306 61.4349 69.8392 61.4592 69.5923 61.5569V61.5569Z" fill="#E6E6E6"/>
<path d="M37.1419 61.8479L30.9877 69.6569C30.8497 69.8321 30.8153 70.0391 30.8922 70.2323C30.9691 70.4255 31.1509 70.5892 31.3977 70.6872C31.6444 70.7853 31.9359 70.8097 32.2081 70.7552C32.4802 70.7006 32.7107 70.5716 32.8488 70.3964L39.003 62.5874C39.0714 62.5006 39.1151 62.4051 39.1315 62.3063C39.148 62.2076 39.1369 62.1075 39.0988 62.0118C39.0608 61.9161 38.9966 61.8266 38.9098 61.7485C38.8231 61.6705 38.7155 61.6053 38.5933 61.5567C38.4711 61.5081 38.3366 61.4771 38.1975 61.4655C38.0584 61.4538 37.9174 61.4618 37.7827 61.4888C37.6479 61.5158 37.5219 61.5615 37.412 61.6231C37.302 61.6847 37.2103 61.7611 37.1419 61.8479H37.1419Z" fill="#E6E6E6"/>
<path d="M76.5826 72.3959C78.4029 72.3959 79.8786 71.348 79.8786 70.0555C79.8786 68.7629 78.4029 67.7151 76.5826 67.7151C74.7623 67.7151 73.2866 68.7629 73.2866 70.0555C73.2866 71.348 74.7623 72.3959 76.5826 72.3959Z" fill="#E6E6E6"/>
<path d="M78.9093 12.5095C80.7296 12.5095 82.2053 11.4617 82.2053 10.1691C82.2053 8.87654 80.7296 7.82872 78.9093 7.82872C77.0889 7.82872 75.6133 8.87654 75.6133 10.1691C75.6133 11.4617 77.0889 12.5095 78.9093 12.5095Z" fill="#E6E6E6"/>
<path d="M53.8985 7.0027C55.7189 7.0027 57.1945 5.95487 57.1945 4.66231C57.1945 3.36975 55.7189 2.32192 53.8985 2.32192C52.0782 2.32192 50.6025 3.36975 50.6025 4.66231C50.6025 5.95487 52.0782 7.0027 53.8985 7.0027Z" fill="#E6E6E6"/>
<path d="M30.0514 12.2341C31.8717 12.2341 33.3473 11.1863 33.3473 9.89376C33.3473 8.6012 31.8717 7.55338 30.0514 7.55338C28.231 7.55338 26.7554 8.6012 26.7554 9.89376C26.7554 11.1863 28.231 12.2341 30.0514 12.2341Z" fill="#E6E6E6"/>
<path d="M32.1837 72.3959C34.004 72.3959 35.4797 71.348 35.4797 70.0555C35.4797 68.7629 34.004 67.7151 32.1837 67.7151C30.3634 67.7151 28.8877 68.7629 28.8877 70.0555C28.8877 71.348 30.3634 72.3959 32.1837 72.3959Z" fill="#E6E6E6"/>
<path d="M88.9341 81.685L89.0758 81.9396H88.9341V81.685Z" fill="#2F2E41"/>
</g>
<defs>
<clipPath id="clip0_1602_950">
<rect width="131" height="87" fill="white"/>
</clipPath>
</defs>
</svg>
